<svg width="16" height="21" viewBox="0 0 16 21" fill="none" xmlns="http://www.w3.org/2000/svg">
	<path d="M1.41681 15.201C0.927607 15.201 0.533574 14.9521 0.363712 14.5343C0.0807814 13.8399 0.488574 12.8849 1.48323 11.9139C2.26157 11.1534 3.34902 10.5275 4.71619 10.0518C5.44405 8.70181 6.11325 7.25633 6.5826 6.02023C5.54305 4.40406 5.35167 2.40803 5.71498 1.29245C5.95032 0.570896 6.35739 0.300069 6.65708 0.199103C7.07522 0.0583106 7.50246 0.163621 7.80008 0.483689C8.24904 0.966171 8.41332 1.93786 8.30325 3.4542C8.25918 4.05896 8.05901 4.87072 7.70532 5.87075C7.72073 5.8902 7.73656 5.90892 7.75197 5.92837C7.98794 6.21668 8.23921 6.53406 8.50321 6.86613C9.06608 7.57526 9.69804 8.37264 10.3413 9.08674C10.5314 9.08054 10.7143 9.07805 10.8909 9.07805C13.1623 9.07805 14.6873 9.55319 15.1859 10.4158C15.3988 10.7843 15.4031 11.1977 15.1982 11.5519C14.9222 12.0304 14.3253 12.3161 13.6008 12.3161H13.6002C13.4245 12.3161 13.2428 12.2988 13.061 12.2649C12.1482 12.097 11.1463 11.4092 9.91921 10.1077C9.60566 10.1253 9.27659 10.1496 8.93987 10.1823C8.21708 10.2525 6.82094 10.4343 5.40753 10.8791C4.79915 11.9777 3.49064 14.1965 2.5145 14.8341C2.14519 15.0741 1.76678 15.201 1.41681 15.201ZM3.91033 11.464C3.21019 11.8024 2.63233 12.1924 2.18305 12.631C1.29981 13.4933 1.2424 14.0343 1.29185 14.1559C1.30633 14.1908 1.36788 14.1984 1.41681 14.1984C1.56661 14.1984 1.76678 14.1238 1.96581 13.9938C2.40195 13.7093 3.12226 12.7635 3.91033 11.464ZM11.3161 10.087C12.0722 10.7882 12.7073 11.18 13.2422 11.2786C13.3654 11.3012 13.4853 11.3128 13.5995 11.3128C13.6002 11.3128 13.6002 11.3128 13.6002 11.3128C13.997 11.3128 14.2564 11.1767 14.33 11.0504C14.343 11.0267 14.3624 10.9943 14.3171 10.9166C14.1492 10.6254 13.3281 10.1461 11.3161 10.087ZM7.29184 6.95375C6.94229 7.81392 6.51608 8.74361 6.05305 9.65767C7.20122 9.37402 8.24242 9.24212 8.84377 9.18388C8.92208 9.17685 8.99966 9.16909 9.07735 9.16267C8.59859 8.5995 8.13897 8.0203 7.71773 7.48878C7.57239 7.30495 7.42973 7.1263 7.29184 6.95375ZM7.02473 1.13965C7.0178 1.13965 7.00104 1.14121 6.97601 1.14958C6.86315 1.18714 6.7476 1.35689 6.66753 1.60341C6.42691 2.34089 6.52249 3.58279 7.02329 4.7261C7.1827 4.18444 7.27797 3.72886 7.30291 3.3822C7.4257 1.69517 7.15239 1.25955 7.0657 1.16707C7.04108 1.13965 7.03229 1.13965 7.02473 1.13965Z" fill="#EE3E36"/>
	<path d="M11.0646 19.7851H4.55982C4.424 19.7851 4.31372 19.8952 4.31372 20.0312V20.5815C4.31372 20.7173 4.42389 20.8276 4.55982 20.8276H11.0646C11.2005 20.8276 11.3106 20.7174 11.3106 20.5815V20.0312C11.3106 19.8952 11.2006 19.7851 11.0646 19.7851Z" fill="#EE3E36"/>
	<path d="M9.26192 13.7295H6.34551C6.17627 13.7295 6.0391 13.8667 6.0391 14.0359V16.9651H5.44396C5.31765 16.9651 5.25713 17.1201 5.35013 17.2057L7.57954 19.2584C7.71102 19.3794 7.91347 19.3794 8.04495 19.2584L10.2744 17.2057C10.3672 17.1201 10.3067 16.9651 10.1805 16.9651H9.5854V14.053C9.5854 13.8742 9.44047 13.7295 9.26192 13.7295Z" fill="#EE3E36"/>
</svg>
