<svg width="16" height="16" viewBox="0 0 16 16" fill="none" xmlns="http://www.w3.org/2000/svg">
    <path d="M9.24926 8.02435L15.7284 1.54241C16.0905 1.1801 16.0905 0.634201 15.7284 0.27173C15.3662 -0.0905768 14.8204 -0.0905768 14.458 0.27173L7.97484 6.75775L1.54182 0.36361C1.17965 0.00130313 0.633792 0.00130313 0.271625 0.36361C-0.0905418 0.725918 -0.0905418 1.27198 0.271625 1.63445L6.70481 8.02826L0.276837 14.4589C-0.0854933 14.8212 -0.0854933 15.3673 0.276837 15.7296C0.460363 15.9083 0.644052 16 0.914537 16C1.18486 16 1.36855 15.9083 1.54703 15.7296L7.97924 9.29504L14.4535 15.7296C14.637 15.9083 14.8207 16 15.091 16C15.2745 16 15.5501 15.9083 15.7237 15.7296C16.086 15.3673 16.086 14.8212 15.7237 14.4589L9.24926 8.02435Z" fill="white"/>
</svg>
