<svg width="18" height="20" viewBox="0 0 18 20" fill="none" xmlns="http://www.w3.org/2000/svg">
<path d="M10.7156 0H5.0006C4.6053 0 4.2857 0.3189 4.2857 0.7142V3.7496L10.7163 7.5013L13.9314 8.8578L17.1461 7.5013V3.7495L10.7156 0Z" fill="#21A366"/>
<path d="M10.7156 3.74951H4.2847V7.50121H10.7156V3.74951Z" fill="#107C41"/>
<path d="M16.4294 0H10.7155V3.7495H17.1447V0.7142C17.1448 0.3189 16.825 0 16.4294 0Z" fill="#33C481"/>
<path d="M10.7156 7.50122H4.2847V14.2862C4.2847 14.6817 4.6052 15.0025 4.9999 15.0025H16.4294C16.8242 15.0025 17.1437 14.6814 17.1437 14.2862V11.2506L10.7156 7.50122Z" fill="#185C37"/>
<path d="M17.1448 7.50122H10.7156V11.2509H17.1448V7.50122Z" fill="#107C41"/>
<path d="M0.7136 3.21362H7.858C8.2518 3.21362 8.5729 3.53472 8.5729 3.92792V11.0733C8.5729 11.4682 8.2514 11.787 7.858 11.787H0.7136C0.3198 11.7864 0 11.4676 0 11.0733V3.92732C0 3.53472 0.3199 3.21362 0.7136 3.21362Z" fill="#107C41"/>
<path d="M1.893 10.1811L3.6264 7.49238L2.0372 4.82138H3.3164L4.183 6.52888C4.2621 6.68998 4.3177 6.81308 4.3472 6.89088H4.3587C4.415 6.76158 4.4754 6.63658 4.5377 6.51448L5.4635 4.82068H6.6365L5.0079 7.47788L6.678 10.1802H5.4302L4.4279 8.30458C4.3813 8.22388 4.3425 8.13828 4.3096 8.05308H4.2945C4.2657 8.13828 4.2278 8.21938 4.1785 8.29538L3.1477 10.1816H1.893V10.1811Z" fill="white"/>
<path d="M14.479 18.8763H7.4672C7.3207 18.8763 7.202 18.9951 7.202 19.1415V19.7347C7.202 19.8813 7.3208 20 7.4672 20H14.4789C14.6254 20 14.7441 19.8812 14.7441 19.7347V19.1415C14.7442 18.995 14.6254 18.8763 14.479 18.8763Z" fill="#21A366"/>
<path d="M12.5358 12.3489H9.3921C9.2097 12.3489 9.0618 12.4967 9.0618 12.6792V15.8366H8.4202C8.2841 15.8366 8.2189 16.0037 8.319 16.096L10.7221 18.3085C10.8639 18.4392 11.0821 18.4392 11.2239 18.3085L13.627 16.096C13.7271 16.0037 13.6619 15.8366 13.5258 15.8366H12.8842V12.6974C12.8843 12.5049 12.7283 12.3489 12.5358 12.3489Z" fill="#21A366"/>
</svg>
