<?xml version="1.0" encoding="utf-8"?>
<!-- Generator: Adobe Illustrator 14.0.0, SVG Export Plug-In . SVG Version: 6.00 Build 43363)  -->
<!DOCTYPE svg PUBLIC "-//W3C//DTD SVG 1.1//EN" "http://www.w3.org/Graphics/SVG/1.1/DTD/svg11.dtd">
<svg version="1.1" id="Layer_1" xmlns="http://www.w3.org/2000/svg" xmlns:xlink="http://www.w3.org/1999/xlink" x="0px" y="0px"
	 width="32px" height="32px" viewBox="0 0 32 32" enable-background="new 0 0 32 32" xml:space="preserve">
<g>
	<rect x="-10.482" y="15.997" transform="matrix(-0.2683 0.9633 -0.9633 -0.2683 23.1835 14.3903)" width="33.218" height="0.006"/>
	<rect x="3.021" y="16" transform="matrix(-0.4326 0.9016 -0.9016 -0.4326 44.1777 4.1991)" width="35.494" height="0.001"/>
	<polygon points="16.225,32 32,2.483 32,2.529 16.23,32 	"/>
	<rect x="-7.212" y="16" transform="matrix(-0.3102 0.9507 -0.9507 -0.3102 27.8123 11.819)" width="33.66" height="0.001"/>
	<rect x="19.221" y="25.089" transform="matrix(-0.5474 0.8369 -0.8369 -0.5474 63.5187 15.8269)" width="16.517" height="0.002"/>
	<rect x="30.092" y="31.074" transform="matrix(-0.6185 0.7858 -0.7858 -0.6185 75.0295 25.7192)" width="2.357" height="0.001"/>
	<rect x="-5.284" y="6.359" transform="matrix(-0.183 0.9831 -0.9831 -0.183 7.6528 6.3589)" width="12.937" height="0.001"/>
	<polygon fill="#808184" points="30.543,32 32,30.148 32,32 	"/>
	<polygon fill="#2248AB" points="0,0 2.367,0 0,12.719 	"/>
	<polygon fill="#8BC53F" points="1.669,32 10.585,0 14.838,0 4.397,32 	"/>
	<polygon fill="#8BC53F" points="13.089,32 28.446,0 32,0 32,2.483 16.225,32 	"/>
	<polygon fill="#808184" points="0,27.754 0,12.721 2.368,0 6.437,0 	"/>
	<polygon fill="#808184" points="7.184,32 4.397,32 14.839,0 19.219,0 	"/>
	<polygon fill="#FAB512" points="0,32 0,27.756 6.439,0 10.579,0 1.668,32 	"/>
	
		<rect x="-11.027" y="13.876" transform="matrix(0.226 -0.9741 0.9741 0.226 -11.0259 13.8772)" fill="#FAB512" width="28.493" height="0.002"/>
	<polygon fill="#8BC53F" points="26.625,32 32,24.522 32,30.147 30.542,32 	"/>
	<polygon fill="#808184" points="10.081,32 23.743,0 28.445,0 13.089,32 	"/>
	<polygon fill="#2248AB" points="23.735,0 10.08,32 7.184,32 19.219,0 	"/>
	<rect x="-3.893" y="16" transform="matrix(0.352 -0.936 0.936 0.352 -6.4218 22.7238)" fill="#2248AB" width="34.188" height="0"/>
	<polygon fill="#2248AB" points="23.743,0 10.081,32 10.08,32 23.735,0 	"/>
	<polygon fill="#00A69C" points="19.498,32 16.23,32 32,2.529 32,10.917 	"/>
	<polygon fill="#00A69C" points="19.498,32 32,10.917 32,18.178 22.959,32 	"/>
	<polygon fill="#00A69C" points="26.623,32 22.959,32 32,18.18 32,24.516 	"/>
	<polygon fill="#00A69C" points="32,24.522 26.625,32 26.623,32 32,24.516 	"/>
</g>
</svg>
