<?xml version="1.0" encoding="utf-8"?>
<!-- Generator: Adobe Illustrator 14.0.0, SVG Export Plug-In . SVG Version: 6.00 Build 43363)  -->
<!DOCTYPE svg PUBLIC "-//W3C//DTD SVG 1.1//EN" "http://www.w3.org/Graphics/SVG/1.1/DTD/svg11.dtd">
<svg version="1.1" id="Layer_1" xmlns="http://www.w3.org/2000/svg" xmlns:xlink="http://www.w3.org/1999/xlink" x="0px" y="0px"
	 width="35px" height="35px" viewBox="0 0 35 35" enable-background="new 0 0 35 35" xml:space="preserve">
<g>
	<path fill="#00A14B" d="M16.56,15.054c0,0.831-0.674,1.505-1.506,1.505H1.506C0.674,16.559,0,15.885,0,15.054V1.505
		C0,0.674,0.674,0,1.506,0h13.548c0.832,0,1.506,0.674,1.506,1.505V15.054z"/>
	<path fill="#43434E" d="M35,15.054c0,0.831-0.674,1.505-1.505,1.505H19.946c-0.831,0-1.505-0.674-1.505-1.505V1.505
		C18.441,0.674,19.115,0,19.946,0h13.549C34.326,0,35,0.674,35,1.505V15.054z"/>
	<g>
		<path fill="#43434E" d="M16.56,33.494c0,0.832-0.674,1.506-1.506,1.506H1.506C0.674,35,0,34.326,0,33.494V19.947
			c0-0.832,0.674-1.506,1.506-1.506h13.548c0.832,0,1.506,0.674,1.506,1.506V33.494z"/>
		<path fill="#43434E" d="M35,33.494C35,34.326,34.326,35,33.495,35H19.946c-0.831,0-1.505-0.674-1.505-1.506V19.947
			c0-0.832,0.674-1.506,1.505-1.506h13.549c0.831,0,1.505,0.674,1.505,1.506V33.494z"/>
	</g>
</g>
</svg>
