<svg width="142" height="24" viewBox="0 0 142 24" fill="none" xmlns="http://www.w3.org/2000/svg">
    <path d="M12.0437 4.98944H14.9191L8.62754 20.3575H6.29277L0 4.98944H2.94117L7.50317 16.7162L12.0437 4.98944Z" fill="white"/>
    <path d="M29.84 20.2479H27.029L25.4942 16.5638H18.337L16.7807 20.2479H14.0552L20.7154 4.88098H23.1804L29.84 20.2479ZM21.9043 8.08445L19.3096 14.1884H24.5204L21.9043 8.08445Z" fill="white"/>
    <path d="M42.1435 20.2479L38.4251 14.9293H35.0944V20.2479H32.4352V4.98944H39.1821C42.6627 4.98944 44.8033 6.84202 44.8033 9.82867C44.8033 12.357 43.3115 13.8825 41.1924 14.4709L45.2795 20.2473H42.1435V20.2479ZM38.9658 7.43104H35.095V12.5533H38.9879C40.8913 12.5533 42.1017 11.5499 42.1017 9.98104C42.1011 8.30312 40.9331 7.43104 38.9658 7.43104Z" fill="white"/>
    <path d="M57.7778 20.2479L54.0587 14.9293H50.7286V20.2479H48.0695V4.98944H54.8151C58.2963 4.98944 60.4369 6.84202 60.4369 9.82867C60.4369 12.357 58.9451 13.8825 56.826 14.4709L60.9131 20.2473H57.7778V20.2479ZM54.5994 7.43104H50.7286V12.5533H54.6209C56.5237 12.5533 57.7347 11.5499 57.7347 9.98104C57.7347 8.30312 56.5674 7.43104 54.5994 7.43104Z" fill="white"/>
    <path d="M70.9248 20.5105C66.2762 20.5105 63.0327 16.9571 63.0327 12.6412C63.0327 8.32478 66.3192 4.72864 70.9678 4.72864C75.6171 4.72864 78.8599 8.28142 78.8599 12.5973C78.8599 16.9131 75.5734 20.5105 70.9248 20.5105ZM70.9248 7.19131C67.9191 7.19131 65.8221 9.61062 65.8221 12.5973C65.8221 15.5833 67.9621 18.046 70.9678 18.046C73.9729 18.046 76.0705 15.6273 76.0705 12.6406C76.0705 9.65399 73.9305 7.19131 70.9248 7.19131Z" fill="white"/>
    <path d="M62.563 8.05677C62.6306 7.9321 62.7005 7.80984 62.7733 7.68878L63.9222 8.38862C63.8601 8.49341 63.7997 8.59821 63.7412 8.70541L62.563 8.05677Z" fill="#8BC53F"/>
    <path d="M68.9086 1.95703C69.0646 1.92631 69.2211 1.89921 69.3782 1.87512L69.7642 4.46307C69.6447 4.48053 69.5258 4.50161 69.4069 4.5251L68.9086 1.95703Z" fill="#8BC53F"/>
    <path d="M81.7456 3.36993C81.8819 3.52833 82.0127 3.68974 82.1411 3.85476L77.483 7.54968C77.4089 7.45392 77.3324 7.35936 77.2535 7.26721L81.7456 3.36993Z" fill="#808184"/>
    <path d="M66.8743 3.21392C67.0117 3.15309 67.1509 3.09527 67.2913 3.04047L68.0148 4.92978C67.9024 4.97435 67.7901 5.01952 67.679 5.06891L66.8743 3.21392Z" fill="#009345"/>
    <path d="M80.5901 2.76886C80.7341 2.91039 80.8757 3.05554 81.0137 3.2031L77.0115 6.99558C76.9285 6.90704 76.8448 6.81972 76.757 6.7348L80.5901 2.76886Z" fill="#8BC53F"/>
    <path d="M63.4443 6.60229C63.5334 6.49087 63.6242 6.38186 63.7174 6.27466L64.7766 7.21058C64.6972 7.30213 64.6189 7.39548 64.5436 7.49064L63.4443 6.60229Z" fill="#808184"/>
    <path d="M62.7579 7.6792C62.8308 7.55754 62.9067 7.43769 62.9844 7.31964L64.1165 8.08031C64.0496 8.18149 63.9845 8.28387 63.9223 8.38867L62.7579 7.6792Z" fill="#8BC53F"/>
    <path d="M95.1561 8.16638C95.2218 8.52292 95.2798 8.88067 95.3294 9.23902L79.1724 11.5361C79.1562 11.4156 79.1359 11.2952 79.1138 11.1753L95.1561 8.16638Z" fill="#2248AB"/>
    <path d="M72.3277 0.956055C72.498 0.97593 72.6682 0.999418 72.8379 1.02652L72.2919 4.47451C72.173 4.45523 72.0535 4.43837 71.9328 4.42512L72.3277 0.956055Z" fill="#8BC53F"/>
    <path d="M62.3874 8.44221C62.4495 8.31574 62.5135 8.19047 62.5804 8.0658L63.7406 8.7048C63.682 8.81201 63.6277 8.92041 63.5739 9.02942L62.3874 8.44221Z" fill="#2248AB"/>
    <path d="M76.65 1.33667C76.8143 1.42039 76.9774 1.50771 77.1388 1.59866L75.0179 5.42788C74.9121 5.36825 74.8064 5.31164 74.6976 5.25683L76.65 1.33667Z" fill="#009345"/>
    <path d="M64.8215 4.94065C64.9338 4.8491 65.0486 4.76057 65.1651 4.67505L66.1114 5.97836C66.0134 6.05063 65.9178 6.12471 65.824 6.2012L64.8215 4.94065Z" fill="#00A69C"/>
    <path d="M77.7781 1.61493C77.94 1.71551 78.0983 1.8185 78.2548 1.9263L75.6357 5.81033C75.5353 5.74227 75.4338 5.67602 75.3316 5.61218L77.7781 1.61493Z" fill="#808184"/>
    <path d="M86.9564 7.44366C87.0323 7.67915 87.1027 7.91644 87.1691 8.15494L78.9496 10.464C78.9173 10.3466 78.8827 10.2298 78.8444 10.1135L86.9564 7.44366Z" fill="#8BC53F"/>
    <path d="M84.627 5.34656C84.7339 5.54772 84.8367 5.75068 84.9347 5.95666L78.4405 9.09688C78.388 8.98727 78.3336 8.87886 78.2769 8.77106L84.627 5.34656Z" fill="#8BC53F"/>
    <path d="M65.7607 3.98364C65.8873 3.90655 66.0152 3.83247 66.1454 3.7608L67.029 5.39114C66.9221 5.44956 66.8175 5.51039 66.7142 5.57303L65.7607 3.98364Z" fill="#8BC53F"/>
    <path d="M93.7332 7.38342C93.8102 7.71889 93.8795 8.05555 93.9423 8.39403L79.1145 11.1759C79.0924 11.0567 79.0679 10.9368 79.0405 10.8182L93.7332 7.38342Z" fill="#808184"/>
    <path d="M86.3859 6.8667C86.4707 7.09436 86.5496 7.32262 86.6248 7.55329L78.8451 10.1141C78.8074 9.9991 78.7674 9.88346 78.725 9.76963L86.3859 6.8667Z" fill="#808184"/>
    <path d="M88.0599 7.90442C88.1292 8.15617 88.1937 8.40972 88.2522 8.66448L79.0398 10.8176C79.0123 10.6995 78.9825 10.5809 78.9502 10.4641L88.0599 7.90442Z" fill="#FAB512"/>
    <path d="M82.1452 3.85114C82.2742 4.01555 82.3991 4.18299 82.5204 4.35282L77.7021 7.84056C77.6316 7.74179 77.5587 7.64422 77.4834 7.54906L82.1452 3.85114Z" fill="#8BC53F"/>
    <path d="M76.1237 1.15662C76.2904 1.2325 76.4577 1.3114 76.6208 1.39511L74.6976 5.25686C74.5895 5.20205 74.4808 5.14965 74.3696 5.10027L76.1237 1.15662Z" fill="#8BC53F"/>
    <path d="M75.616 0.94342C75.7869 1.01148 75.9553 1.08375 76.1232 1.15963L74.3703 5.09967C74.2604 5.04968 74.1493 5.0021 74.0364 4.95693L75.616 0.94342Z" fill="#8BC53F"/>
    <path d="M78.3917 1.72272C78.5512 1.83233 78.7077 1.94495 78.8613 2.06119L75.9309 6.02351C75.8335 5.95004 75.7355 5.87957 75.6357 5.81091L78.3917 1.72272Z" fill="#808184"/>
    <path d="M61.7287 12.537C61.7317 12.4003 61.7365 12.2636 61.7448 12.1275L62.7443 12.1895C62.7366 12.3112 62.7318 12.4322 62.7306 12.5545L61.7287 12.537Z" fill="#8BC53F"/>
    <path d="M62.1246 9.24868C62.1748 9.11799 62.2279 8.9885 62.2835 8.85962L63.4216 9.36131C63.3726 9.47273 63.3266 9.58535 63.2836 9.69918L62.1246 9.24868Z" fill="#00ADEE"/>
    <path d="M67.6659 2.73936C67.8105 2.69058 67.9563 2.6442 68.1026 2.60144L68.7019 4.69673C68.5854 4.73046 68.4701 4.76659 68.3559 4.80514L67.6659 2.73936Z" fill="#808184"/>
    <path d="M71.8084 0.995789C71.9781 1.00844 72.1472 1.02349 72.3174 1.04337L71.9321 4.42571C71.8126 4.41185 71.6919 4.40041 71.5712 4.39198L71.8084 0.995789Z" fill="#2248AB"/>
    <path d="M71.2922 1.20355C71.4595 1.20777 71.6262 1.2162 71.7923 1.22825L71.5712 4.39136C71.4511 4.38293 71.3305 4.3769 71.2098 4.37329L71.2922 1.20355Z" fill="#8BC53F"/>
    <path d="M85.3021 5.77838C85.403 5.98918 85.4986 6.20298 85.59 6.41799L78.5893 9.42993C78.5421 9.31791 78.4919 9.20709 78.4399 9.09688L85.3021 5.77838Z" fill="#808184"/>
    <path d="M81.2277 2.99951C81.3687 3.15068 81.5061 3.30486 81.6399 3.46145L77.2535 7.26719C77.1747 7.17504 77.0934 7.0841 77.011 6.99496L81.2277 2.99951Z" fill="#808184"/>
    <path d="M61.7106 11.712C61.7244 11.5753 61.7429 11.4379 61.7632 11.3024L62.8213 11.4626C62.8027 11.5831 62.7878 11.7035 62.7746 11.8246L61.7106 11.712Z" fill="#808184"/>
    <path d="M77.1656 1.54871C77.3275 1.63965 77.4876 1.7342 77.6459 1.83237L75.3315 5.61281C75.2281 5.54837 75.1236 5.48694 75.0184 5.42731L77.1656 1.54871Z" fill="#8BC53F"/>
    <path d="M69.3501 1.686C69.5096 1.66191 69.6697 1.64143 69.8304 1.62396L70.1232 4.41728C70.0031 4.42993 69.883 4.44559 69.7635 4.46366L69.3501 1.686Z" fill="#2248AB"/>
    <path d="M75.074 0.823547C75.2467 0.883774 75.417 0.948217 75.586 1.01507L74.0357 4.95691C73.9234 4.91235 73.8105 4.87019 73.6964 4.82984L75.074 0.823547Z" fill="#808184"/>
    <path d="M62.9831 7.31843C63.0608 7.20039 63.142 7.08415 63.2245 6.96912L64.3237 7.78037C64.2526 7.87914 64.1833 7.97852 64.1158 8.0803L62.9831 7.31843Z" fill="#00ADEE"/>
    <path d="M62.2483 8.84453C62.3044 8.71504 62.3636 8.58796 62.4245 8.46149L63.574 9.03003C63.5208 9.14024 63.47 9.24986 63.4216 9.36188L62.2483 8.84453Z" fill="#2248AB"/>
    <path d="M72.8468 0.965698C73.0171 0.9928 73.1867 1.02412 73.3558 1.05845L72.6491 4.54016C72.5302 4.51547 72.4113 4.49439 72.2912 4.47511L72.8468 0.965698Z" fill="#8BC53F"/>
    <path d="M80.0399 2.47736C80.1874 2.61106 80.3332 2.74777 80.4754 2.8875L76.7564 6.73419C76.6697 6.64927 76.5813 6.56676 76.4923 6.48545L80.0399 2.47736Z" fill="#009345"/>
    <path d="M68.5022 2.30695C68.6528 2.27021 68.8045 2.23648 68.9574 2.20697L69.4067 4.5251C69.2878 4.54919 69.1701 4.57509 69.0524 4.60279L68.5022 2.30695Z" fill="#00ADEE"/>
    <path d="M79.5739 2.10339C79.7274 2.22987 79.8774 2.35996 80.0262 2.49306L76.4929 6.4855C76.4027 6.40359 76.3107 6.32469 76.2169 6.2476L79.5739 2.10339Z" fill="#00A69C"/>
    <path d="M61.9169 10.0617C61.9551 9.92803 61.9969 9.79553 62.0405 9.66364L63.1607 10.0431C63.1219 10.1581 63.086 10.2749 63.0526 10.3918L61.9169 10.0617Z" fill="#808184"/>
    <path d="M78.8863 2.02869C79.0404 2.14492 79.1928 2.26538 79.3433 2.38824L76.217 6.24818C76.1232 6.17169 76.0276 6.09641 75.9308 6.02353L78.8863 2.02869Z" fill="#00A69C"/>
    <path d="M66.0773 3.63556C66.2094 3.56329 66.3414 3.49343 66.477 3.42657L67.3511 5.22254C67.2423 5.27614 67.1354 5.33215 67.0296 5.39057L66.0773 3.63556Z" fill="#2248AB"/>
    <path d="M61.7906 10.8874C61.8169 10.7513 61.8462 10.6164 61.8778 10.4815L62.9598 10.7453C62.9311 10.8639 62.9054 10.9832 62.8821 11.1024L61.7906 10.8874Z" fill="#00ADEE"/>
    <path d="M61.7531 11.3006C61.7728 11.1645 61.7961 11.029 61.8224 10.8935L62.8822 11.1025C62.8589 11.2217 62.8392 11.3416 62.8207 11.4626L61.7531 11.3006Z" fill="#FAB512"/>
    <path d="M70.797 1.48546C70.9595 1.48245 71.1226 1.48305 71.2845 1.48727L71.2092 4.37334C71.0885 4.37033 70.9673 4.36973 70.8466 4.37153L70.797 1.48546Z" fill="#009345"/>
    <path d="M125.132 7.43042C125.21 8.22903 125.269 9.02884 125.31 9.82925L79.2424 12.263C79.2352 12.142 79.2269 12.0203 79.2149 11.8992L125.132 7.43042Z" fill="#808184"/>
    <path d="M73.3714 0.979553C73.5423 1.01509 73.7113 1.05363 73.8804 1.09639L73.0022 4.62207C72.8851 4.59196 72.7668 4.56546 72.6491 4.54077L73.3714 0.979553Z" fill="#009345"/>
    <path d="M63.902 5.86033C64.0012 5.75553 64.1028 5.65315 64.2061 5.55377L65.2785 6.68302C65.1913 6.76734 65.1059 6.85347 65.0222 6.94079L63.902 5.86033Z" fill="#808184"/>
    <path d="M63.6319 6.19878C63.7263 6.09037 63.8231 5.98437 63.9222 5.87958L65.0221 6.94077C64.9379 7.02871 64.8566 7.11905 64.7772 7.21059L63.6319 6.19878Z" fill="#808184"/>
    <path d="M61.8705 10.4803C61.9033 10.3454 61.9374 10.2123 61.9756 10.0786L63.054 10.3924C63.02 10.5092 62.9895 10.6273 62.9614 10.7459L61.8705 10.4803Z" fill="#8BC53F"/>
    <path d="M73.9019 1.00604C74.0715 1.0488 74.24 1.09518 74.4079 1.14577L73.3516 4.71782C73.2357 4.68349 73.1186 4.65097 73.0015 4.62146L73.9019 1.00604Z" fill="#808184"/>
    <path d="M64.1704 5.51582C64.275 5.41524 64.3813 5.31707 64.4894 5.22131L65.5457 6.43609C65.4549 6.51679 65.3659 6.5987 65.2786 6.68302L64.1704 5.51582Z" fill="#009345"/>
    <path d="M86.0733 6.21021C86.1671 6.43304 86.2568 6.65649 86.3404 6.88354L78.7243 9.76961C78.6825 9.65518 78.6371 9.54316 78.5893 9.43053L86.0733 6.21021Z" fill="#2248AB"/>
    <path d="M84.1001 4.86658C84.213 5.05991 84.3223 5.25564 84.4275 5.45439L78.2769 8.77108C78.2196 8.66388 78.161 8.55788 78.0983 8.45248L84.1001 4.86658Z" fill="#00A69C"/>
    <path d="M83.7453 4.29504C83.8672 4.48295 83.986 4.67387 84.1002 4.8672L78.0983 8.4531C78.0368 8.34831 77.9735 8.24472 77.9072 8.14354L83.7453 4.29504Z" fill="#00A69C"/>
    <path d="M67.2429 2.91465C67.385 2.85924 67.5278 2.80684 67.6724 2.75806L68.3565 4.80517C68.2418 4.84431 68.1277 4.88587 68.0153 4.92984L67.2429 2.91465Z" fill="#009345"/>
    <path d="M82.7164 4.21069C82.8395 4.38354 82.959 4.55941 83.0743 4.73768L77.9071 8.14351C77.8419 8.04112 77.772 7.94054 77.7021 7.84117L82.7164 4.21069Z" fill="#00A69C"/>
    <path d="M68.0912 2.56292C68.2388 2.52016 68.3863 2.48041 68.5357 2.44427L69.0525 4.6028C68.9348 4.63111 68.8171 4.66303 68.7018 4.69676L68.0912 2.56292Z" fill="#2248AB"/>
    <path d="M65.4207 4.27512C65.5425 4.19321 65.6668 4.11311 65.7929 4.03662L66.7141 5.5724C66.6113 5.63564 66.5086 5.70069 66.4082 5.76874L65.4207 4.27512Z" fill="#2248AB"/>
    <path d="M61.9916 9.6468C62.0358 9.5137 62.083 9.3824 62.1326 9.25171L63.2838 9.6998C63.2402 9.81363 63.1984 9.92866 63.1608 10.0437L61.9916 9.6468Z" fill="#009345"/>
    <path d="M69.8285 1.6059C69.9898 1.58843 70.1511 1.57458 70.3124 1.56494L70.4845 4.38657C70.3644 4.3938 70.2437 4.40343 70.1236 4.41668L69.8285 1.6059Z" fill="#808184"/>
    <path d="M61.7192 12.1257C61.7282 11.989 61.739 11.8523 61.7533 11.7162L62.7749 11.8246C62.7624 11.9457 62.7522 12.0673 62.745 12.1896L61.7192 12.1257Z" fill="#808184"/>
    <path d="M74.4958 0.848267C74.6678 0.900062 74.8387 0.95547 75.0078 1.01509L73.6964 4.82986C73.5823 4.79011 73.467 4.75277 73.3517 4.71784L74.4958 0.848267Z" fill="#FAB512"/>
    <path d="M65.0701 4.54494C65.1884 4.45761 65.3084 4.37269 65.4309 4.29138L66.4083 5.76995C66.3079 5.8374 66.2088 5.90727 66.1114 5.97894L65.0701 4.54494Z" fill="#808184"/>
    <path d="M118.839 5.89642C118.936 6.60228 119.02 7.30995 119.088 8.01882L79.2149 11.8992C79.2036 11.7776 79.1892 11.6565 79.1725 11.5361L118.839 5.89642Z" fill="#2248AB"/>
    <path d="M70.3113 1.54264C70.4732 1.5324 70.6351 1.52638 70.7976 1.52277L70.8466 4.37149C70.7259 4.3733 70.6052 4.37872 70.4845 4.38595L70.3113 1.54264Z" fill="#FAB512"/>
    <path d="M63.2121 6.96006C63.2957 6.84563 63.3812 6.7324 63.4696 6.62158L64.545 7.49066C64.4691 7.58521 64.3962 7.68218 64.3245 7.78035L63.2121 6.96006Z" fill="#808184"/>
    <path d="M66.468 3.41028C66.6036 3.34343 66.7392 3.27959 66.8772 3.21936L67.6795 5.06893C67.5684 5.11771 67.4597 5.1689 67.351 5.22311L66.468 3.41028Z" fill="#808184"/>
    <path d="M64.4893 5.22073C64.598 5.12437 64.7085 5.03162 64.8214 4.94067L65.8239 6.20062C65.7289 6.2765 65.6369 6.3548 65.5455 6.4355L64.4893 5.22073Z" fill="#00A69C"/>
    <path d="M76.9775 20.0913C76.8705 20.1793 76.7612 20.2654 76.6501 20.3491L75.9308 19.3764C76.027 19.3036 76.1226 19.2295 76.217 19.1518L76.9775 20.0913Z" fill="#8BC53F"/>
    <path d="M79.629 20.1937C79.519 20.3208 79.4073 20.4455 79.2938 20.5677L77.011 18.4044C77.094 18.3152 77.1747 18.2243 77.2535 18.1328L79.629 20.1937Z" fill="#8BC53F"/>
    <path d="M141.648 16.4332C141.594 17.4751 141.517 18.5152 141.417 19.5541L79.2149 13.5001C79.2269 13.3791 79.2352 13.2574 79.2424 13.1351L141.648 16.4332Z" fill="#2248AB"/>
    <path d="M77.5468 20.107C77.4387 20.2033 77.33 20.2973 77.2177 20.3894L76.2164 19.1518C76.3102 19.0753 76.4022 18.9952 76.4924 18.9139L77.5468 20.107Z" fill="#8BC53F"/>
    <path d="M84.2123 18.3881C84.1293 18.5844 84.0433 18.7765 83.9513 18.9681L78.4399 16.3024C78.4919 16.1922 78.5421 16.0814 78.5893 15.9694L84.2123 18.3881Z" fill="#009345"/>
    <path d="M118.838 19.5035C118.739 20.2094 118.626 20.9128 118.496 21.6139L79.1138 14.224C79.1359 14.1042 79.1556 13.9837 79.1724 13.8633L118.838 19.5035Z" fill="#00A69C"/>
    <path d="M118.496 21.6138C118.367 22.3137 118.222 23.0111 118.062 23.7055L79.0399 14.5818C79.0674 14.4631 79.0919 14.3439 79.114 14.2246L118.496 21.6138Z" fill="#808184"/>
    <path d="M123.075 17.7695C123.002 18.5362 122.912 19.3035 122.805 20.0678L79.1725 13.8632C79.1892 13.7422 79.2041 13.6217 79.2149 13.5001L123.075 17.7695Z" fill="#FAB512"/>
    <path d="M80.8273 19.8221C80.7239 19.9666 80.6182 20.1094 80.5077 20.2503L77.4828 17.8509C77.5581 17.7557 77.631 17.6581 77.7015 17.5582L80.8273 19.8221Z" fill="#8BC53F"/>
    <path d="M81.5454 19.0067C81.454 19.162 81.3584 19.315 81.2598 19.4668L77.9064 17.2565C77.9727 17.1553 78.0367 17.0517 78.0976 16.9469L81.5454 19.0067Z" fill="#808184"/>
    <path d="M80.3608 20.1329C80.2527 20.2714 80.1421 20.4069 80.028 20.54L77.2535 18.1334C77.3324 18.0418 77.4089 17.946 77.483 17.8509L80.3608 20.1329Z" fill="#00ADEE"/>
    <path d="M76.5938 20.2738C76.4839 20.3563 76.3728 20.4364 76.2587 20.5147L75.6349 19.5878C75.7347 19.5209 75.8327 19.4493 75.9301 19.3758L76.5938 20.2738Z" fill="#2248AB"/>
    <path d="M81.1924 19.4222C81.0956 19.5727 80.9947 19.7209 80.8901 19.8678L77.7016 17.5575C77.7715 17.46 77.8408 17.3588 77.9065 17.2564L81.1924 19.4222Z" fill="#00ADEE"/>
    <path d="M79.0368 20.3244C78.9257 20.443 78.8122 20.5587 78.6975 20.6725L76.757 18.6657C76.8442 18.5796 76.9285 18.4929 77.0115 18.4044L79.0368 20.3244Z" fill="#00ADEE"/>
    <path d="M78.575 20.5455C78.4603 20.6575 78.3444 20.7665 78.2255 20.8737L76.4929 18.9139C76.5819 18.8326 76.671 18.7507 76.757 18.6658L78.575 20.5455Z" fill="#FAB512"/>
    <path d="M90.1299 19.9528C90.0236 20.2341 89.913 20.5153 89.7947 20.7918L78.5893 15.97C78.6365 15.858 78.6819 15.7447 78.7243 15.6309L90.1299 19.9528Z" fill="#009345"/>
    <path d="M99.7708 19.4282C99.6728 19.8528 99.5658 20.2762 99.4499 20.6954L78.9502 14.9359C78.9831 14.8185 79.0123 14.7004 79.0398 14.5818L99.7708 19.4282Z" fill="#808184"/>
    <path d="M96.8093 21.2007C96.6856 21.5807 96.5542 21.9596 96.415 22.3336L78.725 15.6309C78.7674 15.5165 78.808 15.4015 78.8451 15.2858L96.8093 21.2007Z" fill="#00A69C"/>
    <path d="M99.193 20.6231C99.0789 21.0381 98.954 21.4525 98.8208 21.8632L78.8444 15.2858C78.8821 15.1702 78.9173 15.0534 78.9496 14.9359L99.193 20.6231Z" fill="#00A69C"/>
    <path d="M83.3491 19.3632C83.2517 19.5457 83.1514 19.727 83.0468 19.904L78.0983 16.9469C78.1604 16.8421 78.2196 16.7361 78.2769 16.6283L83.3491 19.3632Z" fill="#2248AB"/>
    <path d="M83.6413 18.8175C83.5522 19.0048 83.4602 19.1891 83.3629 19.3716L78.2763 16.6283C78.3337 16.5211 78.388 16.412 78.44 16.3024L83.6413 18.8175Z" fill="#808184"/>
</svg>
