<?xml version="1.0" encoding="utf-8"?>
<!-- Generator: Adobe Illustrator 14.0.0, SVG Export Plug-In . SVG Version: 6.00 Build 43363)  -->
<!DOCTYPE svg PUBLIC "-//W3C//DTD SVG 1.1//EN" "http://www.w3.org/Graphics/SVG/1.1/DTD/svg11.dtd">
<svg version="1.1" id="Layer_1" xmlns="http://www.w3.org/2000/svg" xmlns:xlink="http://www.w3.org/1999/xlink" x="0px" y="0px"
	 width="35px" height="35px" viewBox="0 0 35 35" enable-background="new 0 0 35 35" xml:space="preserve">
<g>
	<path fill="#43434E" d="M16.56,15.054c0,0.831-0.674,1.505-1.506,1.505H1.506C0.674,16.559,0,15.885,0,15.054V1.505
		C0,0.674,0.674,0,1.506,0h13.548c0.832,0,1.506,0.674,1.506,1.505V15.054z"/>
	<path fill="#43434E" d="M35,15.054c0,0.831-0.674,1.505-1.505,1.505H19.946c-0.831,0-1.505-0.674-1.505-1.505V1.505
		C18.441,0.674,19.115,0,19.946,0h13.549C34.326,0,35,0.674,35,1.505V15.054z"/>
	<g>
		<path fill="#EC1C24" d="M16.56,33.494c0,0.832-0.674,1.506-1.506,1.506H1.506C0.674,35,0,34.326,0,33.494V19.947
			c0-0.832,0.674-1.506,1.506-1.506h13.548c0.832,0,1.506,0.674,1.506,1.506V33.494z"/>
		<path fill="#43434E" d="M35,33.494C35,34.326,34.326,35,33.495,35H19.946c-0.831,0-1.505-0.674-1.505-1.506V19.947
			c0-0.832,0.674-1.506,1.505-1.506h13.549c0.831,0,1.505,0.674,1.505,1.506V33.494z"/>
	</g>
</g>
<g>
	<path opacity="0.11" fill="#929497" d="M115.222,110.643c0,0.832-0.674,1.506-1.506,1.506h-13.548
		c-0.832,0-1.506-0.674-1.506-1.506V97.094c0-0.83,0.674-1.504,1.506-1.504h13.548c0.832,0,1.506,0.674,1.506,1.504V110.643z"/>
	<path fill="#8BC53F" d="M133.662,110.643c0,0.832-0.674,1.506-1.505,1.506h-13.549c-0.831,0-1.505-0.674-1.505-1.506V97.094
		c0-0.83,0.674-1.504,1.505-1.504h13.549c0.831,0,1.505,0.674,1.505,1.504V110.643z"/>
	<g>
		<path opacity="0.11" fill="#929497" d="M115.222,129.084c0,0.832-0.674,1.506-1.506,1.506h-13.548
			c-0.832,0-1.506-0.674-1.506-1.506v-13.549c0-0.832,0.674-1.506,1.506-1.506h13.548c0.832,0,1.506,0.674,1.506,1.506V129.084z"/>
		<path opacity="0.11" fill="#929497" d="M133.662,129.084c0,0.832-0.674,1.506-1.505,1.506h-13.549
			c-0.831,0-1.505-0.674-1.505-1.506v-13.549c0-0.832,0.674-1.506,1.505-1.506h13.549c0.831,0,1.505,0.674,1.505,1.506V129.084z"/>
	</g>
</g>
<g>
	<path opacity="0.11" fill="#929497" d="M13.275,106.016c0,0.832-0.674,1.506-1.506,1.506H-1.778c-0.832,0-1.506-0.674-1.506-1.506
		V92.469c0-0.832,0.674-1.506,1.506-1.506H11.77c0.832,0,1.506,0.674,1.506,1.506V106.016z"/>
	<path opacity="0.11" fill="#929497" d="M31.716,106.016c0,0.832-0.674,1.506-1.505,1.506H16.662c-0.831,0-1.505-0.674-1.505-1.506
		V92.469c0-0.832,0.674-1.506,1.505-1.506h13.549c0.831,0,1.505,0.674,1.505,1.506V106.016z"/>
	<g>
		<path fill="#EC1C24" d="M13.275,124.457c0,0.832-0.674,1.506-1.506,1.506H-1.778c-0.832,0-1.506-0.674-1.506-1.506v-13.549
			c0-0.83,0.674-1.504,1.506-1.504H11.77c0.832,0,1.506,0.674,1.506,1.504V124.457z"/>
		<path opacity="0.11" fill="#929497" d="M31.716,124.457c0,0.832-0.674,1.506-1.505,1.506H16.662c-0.831,0-1.505-0.674-1.505-1.506
			v-13.549c0-0.83,0.674-1.504,1.505-1.504h13.549c0.831,0,1.505,0.674,1.505,1.504V124.457z"/>
	</g>
</g>
<g>
	<path opacity="0.11" fill="#929497" d="M66.608,110.053c0,0.832-0.674,1.506-1.506,1.506H51.555c-0.832,0-1.506-0.674-1.506-1.506
		V96.506c0-0.832,0.674-1.506,1.506-1.506h13.548c0.832,0,1.506,0.674,1.506,1.506V110.053z"/>
	<path opacity="0.11" fill="#929497" d="M85.049,110.053c0,0.832-0.674,1.506-1.505,1.506H69.995c-0.831,0-1.505-0.674-1.505-1.506
		V96.506c0-0.832,0.674-1.506,1.505-1.506h13.549c0.831,0,1.505,0.674,1.505,1.506V110.053z"/>
	<g>
		<path opacity="0.11" fill="#929497" d="M66.608,128.494c0,0.832-0.674,1.506-1.506,1.506H51.555c-0.832,0-1.506-0.674-1.506-1.506
			v-13.549c0-0.83,0.674-1.504,1.506-1.504h13.548c0.832,0,1.506,0.674,1.506,1.504V128.494z"/>
		<path fill="#F05A28" d="M85.049,128.494c0,0.832-0.674,1.506-1.505,1.506H69.995c-0.831,0-1.505-0.674-1.505-1.506v-13.549
			c0-0.83,0.674-1.504,1.505-1.504h13.549c0.831,0,1.505,0.674,1.505,1.504V128.494z"/>
	</g>
</g>
</svg>
