<?xml version="1.0" encoding="utf-8"?>
<!-- Generator: Adobe Illustrator 14.0.0, SVG Export Plug-In . SVG Version: 6.00 Build 43363)  -->
<!DOCTYPE svg PUBLIC "-//W3C//DTD SVG 1.1//EN" "http://www.w3.org/Graphics/SVG/1.1/DTD/svg11.dtd">
<svg version="1.1" id="Layer_1" xmlns="http://www.w3.org/2000/svg" xmlns:xlink="http://www.w3.org/1999/xlink" x="0px" y="0px"
	 width="70px" height="35px" viewBox="0 0 70 35" enable-background="new 0 0 70 35" xml:space="preserve">
<g>
	<rect fill="none" width="70" height="35"/>
	<g>
		<g>
			<g>
				<g>
					<g>
						<path fill="#2248AB" d="M39.016,16.959c0,0,8.371,6.029,8.379,6.033l0.461,0.344l-0.859,0.037
							c-0.012,0-10.32,0.311-10.32,0.311c0.133,0.711,0.758,1.229,1.484,1.221c2.819-0.029,9.574-0.102,11.6-0.154l0.391,0.291
							c0,0,2.598,2.775,3.469,3.713c-0.316,0.41-0.46,0.934-0.406,1.506c0.059,0.637,0.361,1.258,0.848,1.748
							c1.026,1.033,2.572,1.166,3.449,0.297c0.389-0.383,0.578-0.902,0.584-1.449c0.008-0.689-0.283-1.426-0.855-2.002
							c-0.487-0.488-1.104-0.795-1.743-0.859c-0.415-0.043-0.808,0.02-1.149,0.178l-3.374-3.738c0,0,0-0.141-0.005-0.299l4.69-1.16
							c0.503,0.83,1.615,1.285,2.774,1.055c0.682-0.133,1.277-0.479,1.684-0.975c0.332-0.402,0.506-0.863,0.512-1.334
							c0-0.135-0.012-0.266-0.037-0.398c-0.239-1.211-1.596-1.967-3.023-1.684c-0.679,0.133-1.274,0.479-1.68,0.973
							c-0.367,0.445-0.541,0.959-0.51,1.477c-1.243,0.287-4.955,1.135-4.955,1.135l-0.207,0.008
							c-1.891-1.342-7.066-4.92-9.285-6.454C40.334,16.366,39.527,16.442,39.016,16.959z M55.42,28.758
							c0.459,0.047,0.912,0.273,1.273,0.639c0.728,0.732,0.85,1.793,0.275,2.365c-0.575,0.568-1.635,0.439-2.362-0.293
							c-0.363-0.365-0.586-0.818-0.63-1.279c-0.004-0.061-0.006-0.117-0.006-0.176c0.002-0.359,0.129-0.68,0.361-0.91
							C54.599,28.836,54.986,28.713,55.42,28.758z M50.209,23.877c-0.003,0.229-0.188,0.414-0.42,0.412
							c-0.229-0.004-0.415-0.191-0.414-0.42c0.004-0.23,0.191-0.416,0.422-0.412C50.027,23.457,50.211,23.646,50.209,23.877z
							 M56.162,22.195c-0.012-0.078-0.021-0.158-0.021-0.234c0.004-0.297,0.119-0.596,0.339-0.861
							c0.292-0.357,0.731-0.609,1.235-0.709c1.014-0.201,1.965,0.285,2.119,1.08c0.074,0.373-0.035,0.762-0.311,1.098
							c-0.297,0.359-0.734,0.609-1.238,0.709C57.272,23.477,56.32,22.992,56.162,22.195z"/>
					</g>
				</g>
				<g>
					<g>
						<path fill="#2248AB" d="M41.73,8.991v-6.67h2.02v6.67H41.73z"/>
						<path fill="#2248AB" d="M45.541,9.191h-1.25l2.369-7.07h1.25L45.541,9.191z"/>
						<path fill="#2248AB" d="M55.291,7.076c-0.188,0.431-0.443,0.802-0.77,1.115c-0.328,0.313-0.713,0.559-1.156,0.735
							c-0.443,0.176-0.922,0.265-1.434,0.265c-0.521,0-1.002-0.089-1.445-0.265c-0.443-0.177-0.828-0.422-1.156-0.735
							c-0.326-0.313-0.582-0.685-0.77-1.115c-0.186-0.43-0.279-0.901-0.279-1.415c0-0.513,0.094-0.986,0.279-1.42
							c0.188-0.433,0.443-0.807,0.77-1.12c0.328-0.313,0.713-0.558,1.156-0.734s0.924-0.266,1.445-0.266
							c0.512,0,0.99,0.089,1.434,0.266s0.828,0.422,1.156,0.734c0.326,0.313,0.582,0.688,0.77,1.12
							c0.186,0.434,0.279,0.907,0.279,1.42C55.57,6.174,55.477,6.646,55.291,7.076z M53.42,4.936
							c-0.066-0.23-0.164-0.434-0.295-0.61c-0.129-0.177-0.295-0.316-0.494-0.42S52.197,3.75,51.932,3.75
							c-0.273,0-0.512,0.052-0.711,0.155s-0.367,0.243-0.5,0.42s-0.232,0.38-0.295,0.61c-0.063,0.229-0.096,0.472-0.096,0.725
							c0,0.254,0.033,0.495,0.096,0.726c0.063,0.229,0.162,0.432,0.295,0.604c0.133,0.174,0.301,0.312,0.5,0.415
							s0.438,0.155,0.711,0.155c0.266,0,0.5-0.052,0.699-0.155s0.365-0.241,0.494-0.415c0.131-0.173,0.229-0.375,0.295-0.604
							c0.068-0.23,0.102-0.472,0.102-0.726C53.521,5.408,53.488,5.166,53.42,4.936z"/>
					</g>
				</g>
			</g>
			<g>
				<g>
					<path fill="#2248AB" d="M17.278,8.591c1.06-0.217,2.086-0.581,3.14-0.797C18.41,6.927,16.72,5.542,15.38,3.655
						C14.026,1.749,13.551,0.017,13.546,0l-1.068,0.284l1.069-0.281L11.41,0.565C11.477,0.821,12.779,5.563,17.278,8.591"/>
				</g>
				<g>
					<path fill="#2248AB" d="M26.174,9.64c-0.786,0.547-1.63,1.045-2.513,1.443c2.328,0.72,3.987,1.651,4.943,2.777
						c0.971,1.143,1.103,2.356,1.103,3.393c0,3.046-2.848,5.705-8.463,7.896c-7.011,2.738-9.87,5.592-9.87,9.852h2.21
						c0-2.172,0.654-4.742,8.463-7.791c6.549-2.557,9.87-5.908,9.87-9.957C31.917,14.729,31.18,11.724,26.174,9.64"/>
				</g>
				<g>
					<path fill="#2248AB" d="M20.359,24.438c-4.497-2.047-6.776-4.461-6.776-7.185c0-1.037,0.131-2.25,1.103-3.393
						c1.173-1.381,3.404-2.469,6.629-3.234c8.351-1.98,10.479-9.732,10.565-10.061l-2.138-0.562
						c-0.018,0.067-1.863,6.794-8.938,8.472c-3.745,0.888-6.297,2.182-7.803,3.954c-1.459,1.717-1.628,3.575-1.628,4.824
						c0,3.126,1.983,5.837,5.902,8.087C18.33,25.133,19.338,24.764,20.359,24.438"/>
				</g>
				<g>
					<path fill="#2248AB" d="M25.751,26.811c-0.15,0.129-0.327,0.234-0.522,0.307c-0.758,0.277-1.519,0.549-2.286,0.797
						c6.208,2.742,6.764,5.084,6.764,7.086h2.21C31.917,31.59,30.08,29.08,25.751,26.811"/>
				</g>
				<g>
					<path fill="#2248AB" d="M26.885,1.888H16.459c-0.301,0-0.545-0.244-0.545-0.545V1.207c0-0.301,0.244-0.545,0.545-0.545h10.426
						c0.301,0,0.545,0.244,0.545,0.545v0.137C27.43,1.645,27.186,1.888,26.885,1.888"/>
				</g>
				<g>
					<path fill="#2248AB" d="M25.873,4.909h-8.401c-0.301,0-0.545-0.244-0.545-0.544V4.227c0-0.301,0.244-0.545,0.545-0.545h8.401
						c0.301,0,0.544,0.244,0.544,0.545v0.137C26.417,4.665,26.173,4.909,25.873,4.909"/>
				</g>
				<g>
					<path fill="#2248AB" d="M25.873,14.308h-8.401c-0.301,0-0.545-0.244-0.545-0.545v-0.137c0-0.301,0.244-0.545,0.545-0.545h8.401
						c0.301,0,0.544,0.244,0.544,0.545v0.137C26.417,14.063,26.173,14.308,25.873,14.308"/>
				</g>
				<g>
					<path fill="#2248AB" d="M25.873,21.914h-8.401c-0.301,0-0.545-0.244-0.545-0.545v-0.137c0-0.301,0.244-0.545,0.545-0.545h8.401
						c0.301,0,0.544,0.244,0.544,0.545v0.137C26.417,21.67,26.173,21.914,25.873,21.914"/>
				</g>
				<g>
					<path fill="#2248AB" d="M25.873,31.518h-8.401c-0.301,0-0.545-0.242-0.545-0.543v-0.139c0-0.301,0.244-0.545,0.545-0.545h8.401
						c0.301,0,0.544,0.244,0.544,0.545v0.139C26.417,31.275,26.173,31.518,25.873,31.518"/>
				</g>
				<g>
					<path fill="#2248AB" d="M27.626,34.574H15.718c-0.301,0-0.545-0.244-0.545-0.545v-0.137c0-0.301,0.244-0.545,0.545-0.545
						h11.909c0.301,0,0.545,0.244,0.545,0.545v0.137C28.171,34.33,27.927,34.574,27.626,34.574"/>
				</g>
				<g>
					<path fill="#2248AB" d="M28.04,17.949H15.305c-0.301,0-0.545-0.244-0.545-0.545v-0.138c0-0.301,0.244-0.545,0.545-0.545H28.04
						c0.301,0,0.545,0.244,0.545,0.545v0.138C28.584,17.705,28.34,17.949,28.04,17.949"/>
				</g>
			</g>
		</g>
	</g>
</g>
</svg>
