<?xml version="1.0" encoding="utf-8"?>
<!-- Generator: Adobe Illustrator 14.0.0, SVG Export Plug-In . SVG Version: 6.00 Build 43363)  -->
<!DOCTYPE svg PUBLIC "-//W3C//DTD SVG 1.1//EN" "http://www.w3.org/Graphics/SVG/1.1/DTD/svg11.dtd">
<svg version="1.1" id="Layer_1" xmlns="http://www.w3.org/2000/svg" xmlns:xlink="http://www.w3.org/1999/xlink" x="0px" y="0px"
	 width="70px" height="35px" viewBox="0 0 70 35" enable-background="new 0 0 70 35" xml:space="preserve">
<g>
	<rect x="0" fill="none" width="70" height="35"/>
	<g>
		<g>
			<path fill="#00ADEE" d="M36.744,30.953c0,0.854,0.693,1.547,1.547,1.547h13.717c0.855,0,1.547-0.693,1.547-1.547v-0.619
				c0-0.855-0.691-1.549-1.547-1.549H38.291c-0.854,0-1.547,0.693-1.547,1.549V30.953z"/>
			<path fill="#00ADEE" d="M62.514,19.053c-0.026,0.229,0.135,0.434,0.363,0.463l1.055,0.127c0.229,0.025,0.437-0.135,0.463-0.363
				l0,0c0.028-0.229-0.135-0.436-0.363-0.463l-1.055-0.127C62.748,18.662,62.542,18.824,62.514,19.053L62.514,19.053z"/>
			<path fill="#00ADEE" d="M56.619,22.662c0.1-0.246,0.169-0.506,0.252-0.758l0.482-1.533l0.109-0.346l0.359-0.049l3.319-0.461
				l0.146-0.02l0.141,0.055l1.852,0.721l1.974-0.201l0.148-0.016l0.137,0.059l3.078,1.324l0.332,0.146l0.015,0.363l0.056,1.604
				c0.014,0.266,0.009,0.535,0.039,0.801c0.018,0.133-0.018,0.268-0.035,0.402l-0.065,0.404L68.92,25.41l-0.063,0.053
				c-0.271,0.229-0.546,0.457-0.825,0.678c-0.274,0.225-0.563,0.441-0.849,0.662c0.156-0.326,0.307-0.65,0.469-0.969
				c0.122-0.244,0.246-0.482,0.375-0.719l-0.076-0.324c-0.027-0.133-0.072-0.264-0.064-0.396c0.012-0.27-0.012-0.537-0.018-0.803
				l-0.042-1.24l-2.606-1.123l-1.963,0.201l-0.138,0.014l-0.132-0.051l-1.838-0.717l-2.81,0.391l-0.374,1.182
				c-0.076,0.256-0.168,0.508-0.227,0.77c-0.027,0.131-0.098,0.248-0.162,0.369l-0.158,0.289c0.131,0.609,0.254,1.225,0.354,1.85
				c-0.443-0.568-0.862-1.148-1.261-1.732l-0.047-0.07l0.03-0.258l0.046-0.404C56.557,22.924,56.566,22.789,56.619,22.662z"/>
			<path fill="#00ADEE" d="M50.308,28.334l-0.979-5.307c0.295-0.564,0.471-1.199,0.484-1.877l6.93-10.575l4.704,5.084
				c0.024,0.088,0.054,0.176,0.089,0.259l0.298,2.465l3.429,0.412l0.809-2.765c0.117-0.241,0.197-0.504,0.229-0.783l0.004-0.006
				h-0.001c0.011-0.096,0.017-0.19,0.017-0.29c0-1.05-0.652-1.947-1.573-2.311l-5.29-8.174c-0.147-0.362-0.363-0.688-0.627-0.967
				l-0.006-0.01v0C58.242,2.882,57.428,2.5,56.521,2.5c-1.625,0-2.961,1.22-3.148,2.794L42.592,18.145
				c-0.129,0.137-0.25,0.281-0.361,0.434l-0.031,0.039h0.002c-0.494,0.691-0.789,1.533-0.789,2.445c0,0.598,0.124,1.162,0.348,1.676
				l-1.766,5.596H50.308z M62.285,14.931c0-0.887,0.72-1.605,1.605-1.605c0.887,0,1.605,0.718,1.605,1.605
				c0,0.886-0.719,1.605-1.605,1.605C63.005,16.536,62.285,15.817,62.285,14.931z M54.533,5.491c0-1.075,0.873-1.947,1.947-1.947
				c1.075,0,1.947,0.872,1.947,1.947c0,1.075-0.872,1.948-1.947,1.948C55.406,7.438,54.533,6.566,54.533,5.491z M47.883,21.063
				c0,1.254-1.015,2.27-2.268,2.27c-1.254,0-2.268-1.016-2.268-2.27c0-1.25,1.014-2.268,2.268-2.268
				C46.868,18.795,47.883,19.813,47.883,21.063z"/>
		</g>
		<path fill-rule="evenodd" clip-rule="evenodd" fill="#00ADEE" d="M0.938,3.845v22.016l0.004,0.068l0.004,0.066l0.007,0.068
			l0.013,0.066l0.016,0.064L1,26.262l0.021,0.063l0.023,0.059l0.029,0.061l0.029,0.061l0.034,0.055l0.035,0.053l0.037,0.053
			l0.041,0.053l0.041,0.047l0.043,0.047l0.047,0.045l0.049,0.041l0.05,0.041l0.053,0.037l0.055,0.035l0.054,0.033L1.7,27.072
			l0.063,0.029l0.059,0.023l0.06,0.02l0.069,0.018l0.064,0.016l0.066,0.014l0.067,0.006l0.067,0.006l0.069,0.004h9.564L10.84,29.73
			H7.864l-0.063,0.004l-0.064,0.004l-0.062,0.008l-0.063,0.012l-0.064,0.014l-0.059,0.018l-0.059,0.02l-0.059,0.023l-0.054,0.025
			L7.26,29.887l-0.053,0.029l-0.051,0.033l-0.049,0.035l-0.047,0.037l-0.047,0.041L6.97,30.104l-0.042,0.045L6.89,30.195
			L6.852,30.24l-0.035,0.051l-0.033,0.051l-0.031,0.053l-0.028,0.055L6.7,30.506l-0.023,0.057l-0.021,0.061l-0.017,0.059
			l-0.013,0.061l-0.013,0.064l-0.007,0.064l-0.005,0.064l-0.003,0.063v0.234l0.003,0.064l0.005,0.063l0.007,0.063l0.013,0.064
			l0.013,0.063l0.017,0.061l0.021,0.059L6.7,31.727l0.026,0.053l0.028,0.057l0.031,0.053l0.033,0.051l0.035,0.051l0.038,0.047
			l0.039,0.047l0.042,0.045l0.044,0.041l0.045,0.037l0.048,0.039l0.049,0.035l0.051,0.031l0.053,0.031l0.057,0.027l0.054,0.027
			l0.059,0.023l0.059,0.02l0.063,0.016l0.06,0.014l0.063,0.014l0.062,0.008l0.064,0.004L7.864,32.5H25.09l0.064-0.004l0.064-0.004
			l0.064-0.008l0.063-0.014l0.061-0.014l0.061-0.016l0.059-0.02l0.059-0.023l0.056-0.027l0.054-0.027l0.053-0.031l0.053-0.031
			l0.049-0.035l0.05-0.039l0.044-0.037l0.045-0.041l0.041-0.045l0.04-0.047l0.036-0.047l0.035-0.051l0.034-0.051l0.03-0.053
			l0.028-0.057l0.024-0.053l0.023-0.059l0.021-0.059l0.016-0.061l0.015-0.063l0.013-0.064l0.006-0.063l0.006-0.063l0.002-0.064
			v-0.234l-0.002-0.063l-0.006-0.064l-0.006-0.064l-0.013-0.064l-0.015-0.061l-0.016-0.059l-0.021-0.061l-0.023-0.057l-0.024-0.057
			l-0.028-0.055l-0.03-0.053l-0.034-0.051l-0.035-0.051l-0.036-0.045l-0.04-0.047l-0.041-0.045l-0.045-0.041l-0.047-0.041
			l-0.047-0.037l-0.049-0.035l-0.053-0.033l-0.053-0.029l-0.054-0.029l-0.056-0.025l-0.059-0.023l-0.059-0.02l-0.061-0.018
			l-0.061-0.014l-0.063-0.012l-0.064-0.008l-0.064-0.004L25.09,29.73h-2.976l-1.008-2.523h9.076l0.069-0.004l0.065-0.006
			l0.069-0.006l0.065-0.014l0.064-0.016l0.068-0.018l0.061-0.02l0.059-0.023l0.063-0.029l0.06-0.029l0.054-0.033l0.055-0.035
			l0.053-0.037l0.051-0.041l0.047-0.041l0.049-0.045l0.044-0.047l0.041-0.047l0.041-0.053l0.036-0.053l0.035-0.053l0.033-0.055
			l0.03-0.061l0.029-0.061l0.023-0.059l0.019-0.063l0.018-0.066l0.017-0.064l0.013-0.066l0.006-0.068l0.006-0.066l0.005-0.068V3.845
			l-0.005-0.067L31.518,3.71l-0.006-0.068l-0.013-0.066l-0.017-0.064l-0.018-0.067l-0.019-0.061l-0.023-0.061l-0.029-0.061
			l-0.03-0.059L31.33,3.148l-0.035-0.054L31.259,3.04l-0.041-0.049L31.177,2.94l-0.044-0.045l-0.049-0.044L31.037,2.81L30.986,2.77
			l-0.053-0.036l-0.055-0.037l-0.054-0.032l-0.06-0.03l-0.063-0.028l-0.059-0.023l-0.061-0.021l-0.068-0.017l-0.064-0.015
			l-0.065-0.012l-0.069-0.01l-0.065-0.004L30.182,2.5H2.284L2.215,2.503L2.148,2.507l-0.067,0.01L2.015,2.529L1.95,2.544
			L1.881,2.561l-0.06,0.021L1.763,2.606L1.7,2.634l-0.059,0.03L1.587,2.697L1.532,2.733L1.479,2.77L1.429,2.81L1.379,2.851
			L1.333,2.895L1.29,2.94L1.249,2.991L1.208,3.04L1.171,3.094L1.136,3.148L1.102,3.204L1.073,3.263L1.043,3.323L1.02,3.384L1,3.444
			L0.983,3.511L0.967,3.576L0.954,3.642L0.947,3.71L0.942,3.778L0.938,3.845z M15.417,24.508c0-0.451,0.365-0.816,0.816-0.816
			s0.817,0.365,0.817,0.816s-0.366,0.816-0.817,0.816S15.417,24.959,15.417,24.508z M2.243,4.839l0.001-0.043l0.003-0.045
			l0.007-0.047l0.006-0.043l0.01-0.041l0.012-0.043l0.013-0.041l0.018-0.039l0.018-0.041L2.35,4.419l0.022-0.037l0.023-0.036
			l0.024-0.035L2.444,4.28l0.029-0.035l0.028-0.031l0.03-0.028l0.034-0.028l0.033-0.025l0.033-0.025l0.038-0.024l0.037-0.021
			l0.037-0.02l0.041-0.017l0.04-0.016l0.041-0.016l0.042-0.012l0.041-0.008l0.045-0.008L3.038,3.96l0.043-0.002l0.047-0.002H29.34
			l0.045,0.002l0.043,0.002l0.045,0.007l0.043,0.008l0.044,0.008l0.042,0.012l0.041,0.016l0.04,0.016l0.041,0.017l0.036,0.02
			l0.035,0.021l0.039,0.024l0.033,0.025L29.9,4.159l0.034,0.028l0.029,0.028l0.029,0.031l0.028,0.035l0.025,0.031l0.023,0.035
			l0.023,0.036l0.022,0.037l0.019,0.038l0.018,0.041l0.017,0.039l0.013,0.041l0.012,0.043l0.012,0.041l0.006,0.043l0.006,0.047
			l0.005,0.045l0.001,0.043v16.896l-0.001,0.045l-0.005,0.043l-0.006,0.047l-0.006,0.043l-0.012,0.041l-0.012,0.043l-0.013,0.043
			l-0.017,0.037l-0.018,0.041l-0.019,0.039l-0.022,0.035l-0.023,0.037l-0.023,0.035l-0.025,0.033l-0.028,0.031l-0.028,0.031
			l-0.03,0.027L29.9,22.416l-0.033,0.023l-0.033,0.025l-0.039,0.025l-0.035,0.02l-0.036,0.021l-0.041,0.018l-0.04,0.016
			l-0.041,0.014L29.56,22.59l-0.044,0.01l-0.043,0.008l-0.045,0.006l-0.043,0.002l-0.045,0.004H3.128l-0.047-0.004l-0.043-0.002
			l-0.044-0.006L2.948,22.6l-0.041-0.01l-0.042-0.012l-0.041-0.014l-0.04-0.016l-0.041-0.018L2.706,22.51l-0.037-0.02l-0.038-0.025
			l-0.033-0.025l-0.033-0.023l-0.034-0.029l-0.03-0.029l-0.028-0.029l-0.029-0.031l-0.024-0.033l-0.024-0.035l-0.023-0.037
			L2.35,22.156l-0.019-0.039l-0.018-0.041l-0.018-0.037l-0.013-0.043l-0.012-0.043l-0.01-0.041l-0.006-0.043l-0.007-0.047
			l-0.003-0.043l-0.001-0.045V4.839z"/>
	</g>
</g>
</svg>
