<?xml version="1.0" encoding="utf-8"?>
<!-- Generator: Adobe Illustrator 14.0.0, SVG Export Plug-In . SVG Version: 6.00 Build 43363)  -->
<!DOCTYPE svg PUBLIC "-//W3C//DTD SVG 1.1//EN" "http://www.w3.org/Graphics/SVG/1.1/DTD/svg11.dtd">
<svg version="1.1" id="Layer_1" xmlns="http://www.w3.org/2000/svg" xmlns:xlink="http://www.w3.org/1999/xlink" x="0px" y="0px"
	 width="70px" height="35px" viewBox="0 0 70 35" enable-background="new 0 0 70 35" xml:space="preserve">
<g>
	<rect fill="none" width="70" height="35"/>
	<g>
		<g>
			<g>
				<path fill="#00A69C" d="M47.824,16.577l-4.963-0.958c0.027,1.084-0.133,2.684-1.037,4.215c-2.368,3.995-6.575,3.945-6.715,3.947
					l0.057-3.515l-5.576,6.433l5.338,6.795l0.015-3.03c0.171,0.099,8.346,0.167,12.654-7.296c2.336-4.046,2.127-7.952,1.678-10.209
					L47.824,16.577z"/>
				<path fill="#00A69C" d="M27.95,26.66l3.31-3.818c-0.952-0.52-2.257-1.457-3.13-3.008c-2.277-4.047-0.129-7.665-0.061-7.788
					l3.016,1.807L28.3,5.807l-8.553,1.228l2.617,1.527c-0.172,0.099-4.318,7.145-0.009,14.606c2.337,4.047,5.823,5.818,8.003,6.557
					L27.95,26.66z"/>
				<path fill="#00A69C" d="M47.621,8.619c0-0.198-4.029-7.311-12.645-7.311c-4.673,0-7.95,2.135-9.681,3.653l3.859-0.553
					l1.652,4.777c0.924-0.565,2.39-1.228,4.169-1.208c4.643,0.051,6.703,3.72,6.775,3.84l-3.074,1.708l8.361,1.612l3.213-8.02
					L47.621,8.619z"/>
			</g>
		</g>
		<g>
			<g>
				<path d="M44.219,18.535h-2.184v-0.244l2.266-0.03l0.281-0.329c0.238-0.284,0.25-0.521,0.25-0.949c0-0.471,0-0.686-0.307-0.992
					l-0.309-0.307h-2.182V15.44h2.182l0.309-0.307c0.307-0.307,0.307-0.521,0.307-0.992c0-0.428-0.012-0.666-0.254-0.953
					l-0.277-0.326l-2.266-0.029v-0.245h2.184l0.313-0.312c0.289-0.299,0.301-0.5,0.301-0.964c0-0.427,0-0.912-0.486-1.163
					c-0.313-0.162-0.727-0.168-1.629-0.168h-0.682c-0.004-0.339-0.043-0.545-0.209-0.793c-0.307-0.455-0.658-0.645-1.244-0.661
					V7.845c0-0.904-0.007-1.316-0.168-1.628c-0.252-0.487-0.736-0.487-1.164-0.487c-0.465,0-0.665,0.012-0.969,0.307l-0.309,0.307
					v2.182h-0.244l-0.029-2.263l-0.33-0.283c-0.283-0.239-0.521-0.25-0.949-0.25c-0.47,0-0.686,0-0.991,0.307l-0.307,0.307v2.182
					h-0.244V6.343l-0.307-0.307c-0.307-0.307-0.521-0.307-0.991-0.307c-0.428,0-0.666,0.011-0.953,0.252L32.3,6.262l-0.03,2.263
					h-0.244V6.343L31.713,6.03c-0.299-0.289-0.503-0.3-0.976-0.3c-0.598,0-0.763,0.1-0.813,0.13
					c-0.507,0.295-0.507,0.791-0.507,1.986v0.681c-0.336,0.004-0.542,0.041-0.792,0.209C28.115,9.084,28,9.43,27.972,9.979h-0.7
					c-0.898,0-1.308,0.007-1.619,0.168c-0.484,0.251-0.484,0.737-0.484,1.164c0,0.464,0.012,0.664,0.307,0.97l0.307,0.306h2.182
					v0.244L25.7,12.862l-0.283,0.331c-0.237,0.284-0.249,0.521-0.249,0.949c0,0.472,0,0.686,0.307,0.992l0.307,0.307h2.182v0.243
					h-2.182l-0.307,0.307c-0.307,0.306-0.307,0.521-0.307,0.992c0,0.428,0.012,0.664,0.251,0.953l0.28,0.325l2.264,0.03v0.244
					h-2.182l-0.313,0.313c-0.289,0.301-0.3,0.5-0.3,0.964c0,0.428,0,0.913,0.487,1.163c0.313,0.162,0.725,0.169,1.628,0.169h0.682
					c0.004,0.341,0.043,0.548,0.213,0.792c0.343,0.512,0.689,0.626,1.239,0.654v0.699c0,0.877,0.007,1.313,0.18,1.629
					c0.259,0.475,0.752,0.475,1.186,0.475c0.427,0,0.644-0.012,0.938-0.307l0.306-0.306v-2.183h0.245l0.029,2.264l0.331,0.281
					c0.284,0.238,0.521,0.25,0.949,0.25c0.472,0,0.685,0,0.991-0.307l0.307-0.307v-2.182h0.244v2.182l0.307,0.307
					c0.306,0.307,0.521,0.307,0.991,0.307c0.43,0,0.666-0.012,0.953-0.252l0.326-0.279l0.029-2.264h0.244v2.183l0.309,0.306
					c0.292,0.295,0.51,0.307,0.936,0.307c0.436,0,0.928,0,1.186-0.475c0.173-0.316,0.18-0.752,0.18-1.629V22.59
					c0.525-0.027,0.859-0.133,1.209-0.602c0.17-0.225,0.217-0.471,0.236-0.845h0.701c0.875,0,1.313-0.007,1.627-0.179
					c0.477-0.26,0.477-0.752,0.477-1.188c0-0.424-0.012-0.642-0.307-0.936L44.219,18.535z"/>
				<path fill="#00A69C" d="M44.014,19.029h-1.236h-1.234V18.42v-0.615l1.264-0.018l1.264-0.018l0.135-0.155
					c0.117-0.14,0.133-0.212,0.133-0.632c0-0.454-0.006-0.487-0.162-0.643l-0.162-0.163h-1.236h-1.234v-0.615v-0.615h1.234h1.236
					l0.162-0.162c0.156-0.157,0.162-0.19,0.162-0.644c0-0.419-0.016-0.492-0.133-0.632l-0.135-0.156l-1.264-0.017l-1.264-0.018
					v-0.615v-0.608h1.234h1.236l0.162-0.162c0.15-0.156,0.162-0.19,0.162-0.622c0-0.816-0.043-0.838-1.621-0.838h-1.174V10.06
					c0-0.331-0.023-0.442-0.129-0.6c-0.225-0.336-0.447-0.442-0.912-0.442h-0.414V7.845c0-1.577-0.021-1.623-0.838-1.623
					c-0.43,0-0.465,0.012-0.622,0.163l-0.161,0.163v1.235v1.236h-0.609h-0.615l-0.018-1.264l-0.016-1.263l-0.156-0.134
					C36.912,6.24,36.84,6.223,36.42,6.223c-0.452,0-0.485,0.006-0.642,0.163l-0.164,0.163v1.235v1.236H35h-0.614V7.783V6.548
					l-0.164-0.163c-0.156-0.157-0.19-0.163-0.642-0.163c-0.419,0-0.493,0.017-0.633,0.134l-0.156,0.134l-0.016,1.263l-0.018,1.264
					h-0.615h-0.609V7.783V6.548L31.37,6.385c-0.156-0.15-0.19-0.163-0.631-0.163c-0.258,0-0.509,0.028-0.565,0.063
					c-0.23,0.134-0.262,0.323-0.262,1.56v1.173h-0.414c-0.33,0-0.443,0.023-0.593,0.124c-0.335,0.229-0.419,0.397-0.441,0.889
					l-0.018,0.442h-1.174c-1.565,0-1.61,0.022-1.61,0.839c0,0.431,0.012,0.465,0.163,0.621l0.162,0.162h1.238h1.233v0.608v0.616
					l-1.262,0.017l-1.265,0.017l-0.135,0.156c-0.117,0.141-0.134,0.213-0.134,0.632c0,0.454,0.006,0.487,0.163,0.645l0.162,0.161
					h1.238h1.233v0.615v0.615h-1.233h-1.238l-0.162,0.163c-0.156,0.156-0.163,0.189-0.163,0.643c0,0.42,0.017,0.492,0.134,0.632
					l0.135,0.155l1.265,0.018l1.262,0.018v0.615v0.609h-1.233h-1.238l-0.162,0.162c-0.151,0.156-0.163,0.189-0.163,0.62
					c0,0.817,0.046,0.839,1.622,0.839h1.173v0.414c0,0.33,0.023,0.441,0.129,0.592c0.224,0.336,0.392,0.42,0.884,0.441l0.442,0.018
					v1.174c0,1.566,0.029,1.611,0.871,1.611c0.393,0,0.438-0.012,0.588-0.163l0.162-0.161v-1.237v-1.235h0.61h0.614l0.018,1.264
					l0.016,1.264l0.156,0.135c0.141,0.117,0.214,0.135,0.633,0.135c0.453,0,0.486-0.006,0.642-0.163l0.164-0.161v-1.237v-1.235H35
					h0.614v1.235v1.237l0.164,0.161c0.156,0.157,0.189,0.163,0.642,0.163c0.42,0,0.492-0.018,0.633-0.135l0.156-0.135l0.016-1.264
					l0.019-1.264h0.614h0.609v1.235v1.237l0.161,0.161c0.151,0.151,0.196,0.163,0.589,0.163c0.844,0,0.871-0.045,0.871-1.611v-1.174
					l0.442-0.018c0.476-0.021,0.638-0.1,0.868-0.408c0.088-0.117,0.121-0.256,0.139-0.598l0.018-0.441h1.174
					c1.566,0,1.609-0.029,1.609-0.873c0-0.391-0.012-0.436-0.162-0.586L44.014,19.029z"/>
			</g>
			<path d="M40.518,19.24c0,1.016-0.822,1.839-1.84,1.839h-7.356c-1.015,0-1.839-0.823-1.839-1.839v-7.357
				c0-1.016,0.824-1.839,1.839-1.839h7.356c1.018,0,1.84,0.823,1.84,1.839V19.24z"/>
			<g>
				<g>
					<path fill="#00A69C" d="M35.214,18.412l-0.205-0.668h-2.051l-0.205,0.668h-1.958l2.103-5.701h2.17l2.104,5.701H35.214z
						 M33.983,14.403l-0.564,1.838h1.128L33.983,14.403z"/>
					<path fill="#00A69C" d="M37.479,18.412v-5.701h1.727v5.701H37.479z"/>
				</g>
			</g>
		</g>
	</g>
</g>
</svg>
