<?xml version="1.0" encoding="utf-8"?>
<!-- Generator: Adobe Illustrator 14.0.0, SVG Export Plug-In . SVG Version: 6.00 Build 43363)  -->
<!DOCTYPE svg PUBLIC "-//W3C//DTD SVG 1.1//EN" "http://www.w3.org/Graphics/SVG/1.1/DTD/svg11.dtd">
<svg version="1.1" id="Layer_1" xmlns="http://www.w3.org/2000/svg" xmlns:xlink="http://www.w3.org/1999/xlink" x="0px" y="0px"
	 width="70px" height="35px" viewBox="0 0 70 35" enable-background="new 0 0 70 35" xml:space="preserve">
<g>
	<rect fill="none" width="70" height="35"/>
	<g>
		<path fill="#8BC53F" d="M49.174,29.197L38.467,9.378V5.259h-0.249v4.188c0.005,0.016,0.014,0.029,0.021,0.042l5.324,9.854
			l5.392,9.976c1.324,2.451-0.453,5.43-3.239,5.43h-21.43c-2.784,0-4.563-2.979-3.237-5.43l10.714-19.83
			c0.008-0.013,0.017-0.026,0.026-0.042V5.259h-0.252v4.119L20.825,29.197c-0.662,1.231-0.636,2.683,0.085,3.885
			C21.625,34.282,22.89,35,24.286,35h21.43c1.397,0,2.661-0.718,3.379-1.918C49.81,31.88,49.839,30.429,49.174,29.197z"/>
		<path fill="#8BC53F" d="M39.413,0h-8.824c-1.318,0-2.395,1.076-2.395,2.396c0,1.319,1.076,2.394,2.395,2.394h8.824
			c1.318,0,2.395-1.074,2.395-2.394C41.808,1.076,40.731,0,39.413,0z M39.413,4.286h-8.824c-1.041,0-1.889-0.848-1.889-1.89
			c0-1.044,0.848-1.891,1.889-1.891h8.824c1.041,0,1.889,0.847,1.889,1.891C41.302,3.438,40.454,4.286,39.413,4.286z"/>
		<path fill="#8BC53F" d="M47.844,29.916l-5.388-9.977l-1.055-1.952H28.603l-6.446,11.929c-0.408,0.758-0.39,1.651,0.05,2.391
			c0.442,0.741,1.22,1.182,2.08,1.182h21.43c0.86,0,1.637-0.44,2.08-1.182C48.235,31.567,48.254,30.674,47.844,29.916z
			 M38.884,30.871h-7.766v-0.505h7.766V30.871z M38.884,27.617h-7.766v-0.504h7.766V27.617z M38.884,24.363h-7.766V23.86h7.766
			V24.363z M38.884,21.109h-7.766v-0.505h7.766V21.109z"/>
	</g>
</g>
</svg>
