<?xml version="1.0" encoding="utf-8"?>
<!-- Generator: Adobe Illustrator 14.0.0, SVG Export Plug-In . SVG Version: 6.00 Build 43363)  -->
<!DOCTYPE svg PUBLIC "-//W3C//DTD SVG 1.1//EN" "http://www.w3.org/Graphics/SVG/1.1/DTD/svg11.dtd">
<svg version="1.1" id="Layer_1" xmlns="http://www.w3.org/2000/svg" xmlns:xlink="http://www.w3.org/1999/xlink" x="0px" y="0px"
	 width="70px" height="35px" viewBox="0 0 70 35" enable-background="new 0 0 70 35" xml:space="preserve">
<g>
	<rect fill="none" width="70" height="35"/>
	<g>
		<g>
			<g>
				<path fill="#D50200" d="M40.5,7.143c0,0-4.004,1.778-6.967,1.778c-0.613,0-2.064-0.148-2.473-1.104
					c1.635-0.123,5.206-0.822,7.315-1.553C38.488,7.232,40.5,7.143,40.5,7.143 M40.848,7.132c-1.439,0.812-4.979,1.885-7.003,2.069
					c0.275,0.398,1.745,0.695,3.142,0.598c2.238-0.157,4.629-1.571,5.211-2.046C41.66,7.631,41.629,7.01,40.848,7.132 M42.441,7.944
					c-0.505,0.337-2.988,1.763-5.179,2.039c0.812,0.735,2.486,0.532,3.237,0.307c1.176-0.353,3.405-1.709,3.405-1.709
					S43.039,7.814,42.441,7.944 M44.077,8.665c-0.388,0.286-2.86,1.584-3.525,1.788c0.376,0.116,0.808,0.182,1.241,0.203
					c0.205-0.581,0.964-1.058,1.413-1.279c0.585-0.286,1.382-0.543,2.46-0.359c0.121-0.104,0.193-0.169,0.193-0.169
					S44.496,8.797,44.077,8.665 M46.08,8.92c-0.061,0.041-0.136,0.098-0.224,0.168c0.438,0.164,0.776,0.561,0.866,0.649
					c0.223-0.461,0.132-0.951,0.132-0.951S46.312,8.765,46.08,8.92 M46.346,7.673c-2.229,0-1.727-2.119-1.727-2.549
					c0-0.429-0.031-1.333-1.413-1.165s-3.737,1.625-4.544,2.161c-0.021,0.368,1.057,0.951,2.508,0.767
					c0.106,0.018,1.415-0.254,1.502-0.223c0.085,0.049-1.053,0.381-1.002,0.408c0.381,0.198,0.576,0.504,0.875,0.581
					c0.09,0.02,1.189-0.191,1.36-0.123c0.058,0.022-0.812,0.291-0.75,0.317c0.441,0.148,0.815,0.433,0.989,0.596
					c0.064,0.012,0.901-0.102,0.969-0.091c0.07,0.012-0.516,0.219-0.443,0.23c0.488,0.074,0.916,0.081,1.189,0.081
					c0.353,0,0.785-0.107,0.979,0C46.937,8.699,46.473,7.673,46.346,7.673 M62.812,7.817c-1.636-0.123-5.206-0.822-7.315-1.553
					c-0.113,0.968-2.125,0.879-2.125,0.879s4.006,1.692,6.968,1.778C61.047,8.94,62.123,8.7,62.812,7.817 M60.027,9.201
					c-2.023-0.184-5.563-1.257-7.004-2.069c-0.782-0.122-0.813,0.499-1.349,0.621c0.582,0.475,2.978,1.834,5.21,2.046
					C57.318,9.84,58.741,9.881,60.027,9.201 M49.965,8.581c0,0,2.23,1.356,3.406,1.709c0.752,0.225,2.426,0.429,3.238-0.307
					c-2.191-0.276-4.674-1.701-5.18-2.039C50.832,7.814,49.965,8.581,49.965,8.581 M48.012,8.849c0,0,0.086,0.077,0.227,0.197
					c0.727-0.257,1.824,0.032,2.365,0.27c0.455,0.2,1.009,0.528,1.467,1.34c0.436-0.021,0.871-0.087,1.249-0.204
					c-0.664-0.204-3.137-1.502-3.525-1.788C49.376,8.797,48.012,8.849,48.012,8.849 M47.018,8.787c0,0-0.105,0.567,0.188,1.056
					c0.154-0.235,0.422-0.508,0.863-0.712c-0.111-0.089-0.205-0.161-0.276-0.21C47.561,8.765,47.018,8.787,47.018,8.787
					 M50.666,3.96c-1.383-0.168-1.413,0.736-1.413,1.165c0,0.43,0.501,2.549-1.727,2.549c-0.128,0-0.591,1.025-0.495,0.991
					c0.195-0.107,0.628,0,0.98,0c0.273,0,0.701-0.007,1.19-0.081c0.071-0.012-0.515-0.219-0.444-0.23
					c0.068-0.011,0.904,0.103,0.969,0.091c0.174-0.163,0.549-0.448,0.99-0.596c0.061-0.026-0.808-0.294-0.752-0.317
					c0.172-0.068,1.271,0.143,1.362,0.123c0.298-0.077,0.493-0.383,0.873-0.581c0.052-0.027-1.085-0.359-1.001-0.408
					c0.088-0.032,1.396,0.24,1.502,0.223c1.451,0.184,2.529-0.398,2.509-0.767C54.402,5.584,52.047,4.128,50.666,3.96
					 M47.906,22.438c0.349,0.152,0.57,0.439,0.659,0.804c0.101,0.355-0.019,0.636-0.286,0.896c-0.233,0.214-0.547,0.365-0.875,0.446
					c0.421,0.052,0.75,0.206,1.08,0.394c0.047-0.027,0.093-0.055,0.139-0.086c0.454-0.291,0.896-0.891,0.826-1.592
					c-0.041-0.584-0.373-1.234-0.934-1.576c-0.548-0.352-1.185-0.42-1.734-0.41c-0.461,0.002-0.938-0.054-1.328-0.208
					c-0.402-0.163-0.621-0.388-0.635-0.666c-0.014-0.351,0.119-0.774,0.377-0.995c0.111-0.104,0.253-0.189,0.414-0.257
					c-0.055-0.014-0.109-0.027-0.164-0.04c-0.395-0.094-0.772-0.219-1.133-0.4c-0.392,0.447-0.579,1.045-0.572,1.588
					c-0.007,0.357,0.115,0.758,0.352,1.049c0.231,0.295,0.529,0.481,0.816,0.607c0.583,0.249,1.156,0.299,1.708,0.299
					C47.154,22.264,47.542,22.273,47.906,22.438 M47.788,27.909c-0.212-0.247-0.53-0.429-0.864-0.523
					c-0.279-0.083-0.563-0.198-0.777-0.374c-0.432-0.288-0.475-1.118-0.004-1.395c0.044-0.029,0.091-0.053,0.139-0.075
					c-0.252-0.089-0.502-0.187-0.758-0.271c-0.208,0.246-0.336,0.559-0.334,0.85c-0.029,0.439,0.141,0.912,0.455,1.191
					c0.631,0.582,1.389,0.473,1.732,0.789c0.402,0.289,0.448,0.771,0.391,1.134c-0.132,0.775-0.805,0.707-0.771,0.763
					c-0.018,0.021,0.076,0.07,0.288,0.049c0.202-0.006,0.573-0.189,0.724-0.611c0.078-0.203,0.117-0.438,0.111-0.696
					C48.111,28.467,48.006,28.154,47.788,27.909 M46.17,29.235c-0.059-0.362-0.014-0.845,0.391-1.134
					c0.028-0.027,0.061-0.051,0.095-0.072c-0.146-0.063-0.292-0.129-0.437-0.195c-0.024,0.023-0.049,0.049-0.071,0.075
					c-0.217,0.245-0.323,0.558-0.331,0.83c-0.006,0.259,0.033,0.493,0.112,0.696c0.149,0.422,0.521,0.605,0.724,0.611
					c0.211,0.021,0.305-0.027,0.288-0.049C46.973,29.942,46.301,30.011,46.17,29.235 M48.748,26.121
					c0.002-0.458-0.318-0.973-0.764-1.188c-0.408-0.24-0.975-0.261-1.311-0.32c-0.378-0.069-0.75-0.232-1.017-0.477
					c-0.268-0.26-0.386-0.54-0.286-0.896c0.072-0.3,0.238-0.547,0.488-0.71c-0.072-0.014-0.146-0.027-0.219-0.047
					c-0.257-0.07-0.497-0.182-0.746-0.272c-0.24,0.327-0.381,0.72-0.407,1.087C44.418,24,44.859,24.6,45.313,24.891
					c0.465,0.311,0.973,0.448,1.457,0.488c0.447,0.019,0.772,0.074,1.025,0.238c0.47,0.276,0.427,1.106-0.005,1.395
					c-0.161,0.131-0.358,0.229-0.564,0.304c0.22,0.082,0.435,0.18,0.642,0.289c0.145-0.073,0.287-0.166,0.424-0.292
					C48.605,27.033,48.775,26.561,48.748,26.121 M49.382,18.512c-0.546-0.451-1.202-0.617-1.802-0.674
					c-0.648-0.047-1.093-0.007-1.592-0.102c-0.965-0.116-1.95-0.655-1.863-1.188c-0.01-0.657,0.504-1.084,1.241-1.312
					c-0.589-0.074-1.165-0.21-1.714-0.473c-0.021-0.01-0.039-0.021-0.057-0.033c-0.52,0.475-0.809,1.238-0.754,1.943
					c0.02,0.412,0.201,0.831,0.457,1.125c0.255,0.295,0.552,0.495,0.848,0.651c0.595,0.305,1.199,0.433,1.798,0.508
					c0.608,0.08,1.225,0.01,1.651,0.057c0.463,0.047,0.885,0.186,1.145,0.43c0.259,0.221,0.391,0.645,0.377,0.995
					c-0.013,0.278-0.232,0.503-0.634,0.666c-0.125,0.05-0.261,0.088-0.399,0.118c0.418,0.164,0.806,0.405,1.213,0.629
					c0.197-0.115,0.388-0.266,0.547-0.469c0.236-0.291,0.359-0.691,0.353-1.049C50.204,19.689,49.938,18.965,49.382,18.512
					 M46.945,9.738l-0.449,1.042c0.004,0.82,0.01,1.684,0.016,2.574h0.858c0.01-0.89,0.017-1.753,0.023-2.574L46.945,9.738z
					 M46.947,8.297l0.463-0.858c0-0.175,0-0.348,0-0.513c0-0.231-0.207-0.334-0.463-0.334s-0.463,0.068-0.463,0.334
					c0,0.166,0,0.338,0,0.513L46.947,8.297z M46.529,15.265c0.006,0.764,0.014,1.537,0.021,2.312h0.768
					c0.012-0.774,0.021-1.548,0.031-2.312H46.529z M46.57,19.193c0.008,0.686,0.018,1.365,0.026,2.033h0.667
					c0.01-0.668,0.021-1.348,0.031-2.033H46.57z M47.203,24.43c0.014-0.656,0.026-1.34,0.04-2.043h-0.629
					c0.011,0.701,0.022,1.387,0.034,2.043H47.203z M47.14,27.219c0.013-0.523,0.026-1.082,0.04-1.67h-0.509
					c0.013,0.588,0.025,1.146,0.038,1.67H47.14z M46.733,28.098c0.062,2.109,0.134,3.447,0.214,3.401
					c0.053-0.03,0.111-1.352,0.169-3.401H46.733z M46.947,3.5c-0.643,0-1.164,0.521-1.164,1.165c0,0.643,0.521,1.165,1.164,1.165
					c0.645,0,1.165-0.521,1.165-1.165C48.112,4.021,47.592,3.5,46.947,3.5 M46.947,5.938c-0.377,0.016-0.705-0.205-0.809-0.106
					c-0.119,0.085,0.183,0.677,0.809,0.68c0.627-0.002,0.93-0.594,0.81-0.68C47.653,5.733,47.324,5.955,46.947,5.938 M51.096,16.674
					c-0.021,0.412-0.203,0.831-0.457,1.125c-0.256,0.295-0.553,0.495-0.848,0.651c-0.002,0-0.004,0-0.004,0.002
					c-0.434-0.371-0.973-0.625-1.532-0.766c0.854-0.18,1.634-0.661,1.557-1.137c0.012-0.763-0.685-1.218-1.616-1.406
					c-1.672-0.329-4.406,0.271-6.016-1.854c-0.182-0.268-0.311-0.592-0.355-0.921c-0.049-0.338-0.033-0.571-0.002-0.875
					c0.063-0.582,0.388-1.201,0.85-1.568c0.938-0.725,1.861-0.76,2.629-0.832c0.402-0.017,1.046,0.431,1.318,0.853
					c-0.002,0.07-0.026,0.134-0.068,0.191c-0.209,0.281-0.848,0.42-1.169,0.432c-0.638,0.036-0.997-0.631-1.821,0.266
					c-0.191,0.159-0.248,0.569-0.293,0.869c-0.033,0.347-0.023,0.595,0.134,0.811c0.304,0.484,1.149,0.86,2.03,1
					c0.459,0.081,0.89,0.097,1.43,0.113c0.551,0.018,1.117,0.068,1.699,0.208c0.575,0.148,1.191,0.368,1.728,0.849
					C50.842,15.153,51.15,15.945,51.096,16.674 M45.23,9.508c0,0.067,0.057,0.123,0.123,0.123c0.068,0,0.123-0.055,0.123-0.123
					c0-0.068-0.055-0.123-0.123-0.123C45.287,9.385,45.23,9.44,45.23,9.508 M52.111,12.367c-0.045,0.329-0.174,0.653-0.354,0.921
					c-0.386,0.509-0.836,0.861-1.321,1.108c-0.309-0.198-0.642-0.359-0.977-0.504c-0.289-0.125-0.592-0.268-0.896-0.345
					c-0.039-0.009-0.078-0.017-0.116-0.024c0.019-0.003,0.038-0.006,0.06-0.01c0.88-0.14,1.725-0.515,2.029-1
					c0.158-0.216,0.166-0.464,0.134-0.811c-0.045-0.299-0.103-0.709-0.294-0.869c-0.824-0.897-1.183-0.23-1.821-0.266
					c-0.386-0.014-1.234-0.213-1.235-0.623c0.271-0.422,0.914-0.87,1.317-0.853c0.767,0.072,1.69,0.107,2.628,0.832
					c0.463,0.367,0.787,0.986,0.85,1.568C52.146,11.795,52.162,12.029,52.111,12.367 M48.715,9.508c0-0.068-0.055-0.123-0.122-0.123
					s-0.122,0.055-0.122,0.123c0,0.067,0.055,0.123,0.122,0.123S48.715,9.575,48.715,9.508"/>
			</g>
		</g>
		<path fill-rule="evenodd" clip-rule="evenodd" fill="#D50200" d="M23.767,3.5l-16.579,28h33.07L23.767,3.5z M23.698,11.023
			c1.438,0,2.604,1.165,2.646,2.578l-0.529,7.719c-0.019,1.183-0.952,2.117-2.107,2.117c-1.148,0-2.09-0.935-2.09-2.092
			l-0.514-7.727C21.103,12.188,22.268,11.023,23.698,11.023z M23.714,28.758c-1.206,0-2.183-0.985-2.183-2.193
			c0-1.207,0.977-2.186,2.183-2.186c1.208,0,2.194,0.979,2.194,2.186C25.908,27.772,24.922,28.758,23.714,28.758z"/>
	</g>
</g>
</svg>
