<?xml version="1.0" encoding="utf-8"?>
<!-- Generator: Adobe Illustrator 14.0.0, SVG Export Plug-In . SVG Version: 6.00 Build 43363)  -->
<!DOCTYPE svg PUBLIC "-//W3C//DTD SVG 1.1//EN" "http://www.w3.org/Graphics/SVG/1.1/DTD/svg11.dtd">
<svg version="1.1" id="Layer_1" xmlns="http://www.w3.org/2000/svg" xmlns:xlink="http://www.w3.org/1999/xlink" x="0px" y="0px"
	 width="70px" height="35px" viewBox="0 0 70 35" enable-background="new 0 0 70 35" xml:space="preserve">
<g>
	<rect fill="none" width="70" height="35"/>
	<path fill="#6A0800" d="M24.042,28.632v-2.478c1.602-0.533,1.563-0.533,1.639-0.991l0.077-16.542c0-0.99-0.153-1.029-1.449-1.296
		V4.848h9.033c3.659,0,5.413,0.153,7.052,1.22c1.867,1.22,2.82,3.316,2.82,5.222c0,3.278-1.906,4.879-5.756,6.213
		c1.41,1.144,1.792,1.563,2.973,3.049l2.402-3.125l2.248,1.715l-2.858,3.926c1.41,2.363,1.982,2.82,3.735,3.05v2.516h-5.564
		c-0.533,0-0.604-0.055-0.947-0.344c-0.471-0.372-0.424-0.372-0.73-0.609l-4.154,5.489l-2.248-1.678l4.573-6.327
		c-1.067-2.438-1.906-3.964-3.468-5.831c-0.941-1.149-1.373-1.334-2.439-1.334v6.289c0,1.41,0.037,1.677,1.563,1.753v2.592H24.042z
		 M37.425,11.408c0-2.935-2.135-3.621-6.441-3.621v7.204c0.687,0.038,1.334,0.038,1.754,0.038
		C35.786,15.029,37.425,13.695,37.425,11.408"/>
</g>
</svg>
