<?xml version="1.0" encoding="utf-8"?>
<!-- Generator: Adobe Illustrator 14.0.0, SVG Export Plug-In . SVG Version: 6.00 Build 43363)  -->
<!DOCTYPE svg PUBLIC "-//W3C//DTD SVG 1.1//EN" "http://www.w3.org/Graphics/SVG/1.1/DTD/svg11.dtd">
<svg version="1.1" id="Layer_1" xmlns="http://www.w3.org/2000/svg" xmlns:xlink="http://www.w3.org/1999/xlink" x="0px" y="0px"
	 width="70px" height="35px" viewBox="0 0 70 35" enable-background="new 0 0 70 35" xml:space="preserve">
<g>
	<rect x="0" y="0" fill="none" width="70" height="35"/>
	<g>
		<g>
			<g>
				<path fill="#FAB512" d="M26.671,23.783c0,0,0.841,2.121-4.37,4.316v0.866h-4.727V24.23"/>
			</g>
			<g>
				<rect x="12.55" y="28.966" fill="#FAB512" width="10.124" height="1.218"/>
			</g>
			<g>
				<g>
					<path fill="#FAB512" d="M15.268,23.962c0,0.976,0.797,1.772,1.771,1.772h7.967c0.975,0,1.771-0.797,1.771-1.772V5.066
						c0-0.975-0.797-1.771-1.771-1.771h-7.967c-0.975,0-1.771,0.797-1.771,1.771V23.962z"/>
				</g>
			</g>
			<g>
				<g>
					<g>
						<g>
							<g>
								<rect x="15.818" y="6.461" width="10.412" height="15.951"/>
							</g>
						</g>
					</g>
				</g>
			</g>
			<g>
				<g>
					<g>
						<path d="M19.693,23.953c0,0.251,0.203,0.455,0.451,0.455h1.684c0.252,0,0.453-0.204,0.453-0.455l0,0
							c0-0.25-0.201-0.453-0.453-0.453h-1.684C19.896,23.5,19.693,23.703,19.693,23.953L19.693,23.953z"/>
					</g>
				</g>
			</g>
			<g>
				<g>
					<g>
						<g>
							<path d="M19.998,4.898c0,0.102,0.08,0.182,0.18,0.182h1.563c0.101,0,0.181-0.08,0.181-0.182l0,0
								c0-0.1-0.08-0.181-0.181-0.181h-1.563C20.078,4.718,19.998,4.799,19.998,4.898L19.998,4.898z"/>
						</g>
					</g>
				</g>
				<g>
					<g>
						<g>
							<circle cx="22.83" cy="4.898" r="0.222"/>
						</g>
					</g>
				</g>
			</g>
			<g>
				<path fill="#FAB512" d="M14.941,15.065c0,0,1.387,0.244,5.107,0.81c0,0,0.509,0.118,0.309,0.502
					c-0.352,0.678-1.769,1.989-3.974,1.125c0,0-0.419,1.758-0.335,2.344c0,0,4.168,3.121,2.326,9.12h-5.352
					c0,0-0.803-8.624,0-10.803C13.825,15.986,13.648,14.918,14.941,15.065z"/>
			</g>
			<g>
				<path fill="#FAB512" d="M24.46,11.8c0.235,0.636,0.942,0.961,1.579,0.724l2.021-0.752c0.637-0.235,0.961-0.941,0.725-1.578l0,0
					c-0.236-0.636-0.943-0.959-1.578-0.725l-2.023,0.752C24.547,10.459,24.223,11.166,24.46,11.8L24.46,11.8z"/>
			</g>
			<g>
				<path fill="#FAB512" d="M23.861,15.157c0.234,0.637,0.941,0.96,1.578,0.724l2.621-0.936c0.637-0.238,0.961-0.943,0.725-1.58l0,0
					c-0.236-0.635-0.941-0.96-1.578-0.723l-2.624,0.937C23.947,13.816,23.625,14.522,23.861,15.157L23.861,15.157z"/>
			</g>
			<g>
				<path fill="#FAB512" d="M23.723,18.351c0.235,0.634,0.941,0.958,1.578,0.723l2.76-1.069c0.637-0.236,0.961-0.943,0.725-1.579
					l0,0c-0.236-0.638-0.941-0.959-1.578-0.725l-2.762,1.071C23.811,17.006,23.485,17.714,23.723,18.351L23.723,18.351z"/>
			</g>
			<g>
				<path fill="#FAB512" d="M24.951,20.79c0.213,0.575,0.854,0.868,1.427,0.653l1.761-0.617c0.574-0.213,0.867-0.854,0.654-1.428
					l0,0c-0.213-0.575-0.854-0.867-1.428-0.654l-1.762,0.618C25.03,19.576,24.738,20.217,24.951,20.79L24.951,20.79z"/>
			</g>
			<rect x="11.955" y="30.184" fill="#FAB512" width="11.277" height="2.073"/>
		</g>
		<g>
			<path fill="#FAB512" d="M37.674,11.87h18.34V4.881h-18.34V11.87z M43.465,8.375c0-0.408,0.332-0.74,0.74-0.74h5.277
				c0.409,0,0.739,0.332,0.739,0.74l0,0c0,0.409-0.33,0.74-0.739,0.74h-5.277C43.797,9.115,43.465,8.784,43.465,8.375L43.465,8.375z
				"/>
			<path fill="#FAB512" d="M37.674,20.09h18.34v-6.991h-18.34V20.09z M43.465,16.594c0-0.408,0.332-0.739,0.74-0.739h5.277
				c0.409,0,0.739,0.331,0.739,0.739l0,0c0,0.408-0.33,0.74-0.739,0.74h-5.277C43.797,17.334,43.465,17.002,43.465,16.594
				L43.465,16.594z"/>
			<path fill="#FAB512" d="M37.674,28.308h18.34v-6.989h-18.34V28.308z M43.465,24.813c0-0.408,0.332-0.74,0.74-0.74h5.277
				c0.409,0,0.739,0.332,0.739,0.74l0,0c0,0.408-0.33,0.74-0.739,0.74h-5.277C43.797,25.553,43.465,25.221,43.465,24.813
				L43.465,24.813z"/>
			<path fill="#FAB512" d="M56.32,2.744H37.367c-0.951,0-1.727,0.773-1.727,1.725v24.25c0,0.951,0.775,1.726,1.727,1.726h1.756
				c0,0.696,0.565,1.261,1.262,1.261l0,0c0.695,0,1.262-0.564,1.262-1.261h10.395c0,0.696,0.565,1.261,1.262,1.261l0,0
				c0.697,0,1.262-0.564,1.262-1.261h1.756c0.952,0,1.727-0.774,1.727-1.726V4.469C58.047,3.518,57.272,2.744,56.32,2.744z
				 M57.186,28.719c0,0.477-0.389,0.865-0.865,0.865H37.367c-0.477,0-0.864-0.389-0.864-0.865V4.469
				c0-0.476,0.388-0.864,0.864-0.864H56.32c0.477,0,0.865,0.389,0.865,0.864V28.719z"/>
		</g>
	</g>
</g>
</svg>
