<?xml version="1.0" encoding="utf-8"?>
<!-- Generator: Adobe Illustrator 14.0.0, SVG Export Plug-In . SVG Version: 6.00 Build 43363)  -->
<!DOCTYPE svg PUBLIC "-//W3C//DTD SVG 1.1//EN" "http://www.w3.org/Graphics/SVG/1.1/DTD/svg11.dtd">
<svg version="1.1" id="Layer_1" xmlns="http://www.w3.org/2000/svg" xmlns:xlink="http://www.w3.org/1999/xlink" x="0px" y="0px"
	 width="70px" height="35px" viewBox="0 0 70 35" enable-background="new 0 0 70 35" xml:space="preserve">
<g>
	<rect y="0" fill="none" width="70" height="35"/>
	<g>
		<g>
			<path fill="#808184" d="M36.605,11.567c0.064-1.355,0.521-2.552,1.369-3.587c0.848-1.068,2.232-1.616,4.156-1.643
				c0.969,0,1.79,0.13,2.463,0.391c0.659,0.261,1.195,0.601,1.609,1.021c0.408,0.429,0.711,0.879,0.911,1.354
				c0.187,0.494,0.288,0.981,0.301,1.462c0,0.602-0.075,1.105-0.226,1.513c-0.158,0.401-0.372,0.733-0.641,0.992
				c-0.27,0.248-0.558,0.458-0.867,0.632c-0.328,0.18-0.666,0.357-1.015,0.53c-0.427,0.234-0.722,0.481-0.886,0.742
				c-0.172,0.273-0.25,0.645-0.236,1.112h-3.732c0-0.234,0.006-0.507,0.02-0.822c0-0.313,0.033-0.642,0.1-0.981
				c0.081-0.36,0.225-0.699,0.433-1.013c0.208-0.313,0.503-0.581,0.885-0.801c0.368-0.161,0.773-0.357,1.216-0.592
				c0.436-0.233,0.67-0.567,0.703-1.001c-0.019-0.688-0.404-1.039-1.154-1.052c-0.466,0.013-0.8,0.184-1,0.511
				c-0.207,0.347-0.291,0.758-0.252,1.232H36.605z M39.57,17.291h4.129v4.047H39.57V17.291z"/>
		</g>
		<g>
			<path fill="#808184" d="M29.609,2.719L29.609,2.719c-0.921,0-1.256,0.628-1.338,0.795v0.043c0,0,0,0,0-0.043
				c0.291-0.711,0.125-1.923-0.879-2.258c-0.711-0.251-0.754-0.878-0.711-1.171C26.682,0.042,26.639,0,26.598,0h-0.042
				c-0.753,0.669-0.293,1.422-0.293,1.84c0,0.209-0.126,0.46-0.376,0.46c-0.461,0-0.502-0.502-0.502-0.753
				c0-0.042-0.042-0.083-0.084-0.083h-0.042c-1.087,0.794-0.167,2.007-0.125,2.635c0.042,0.251-0.167,0.376-0.376,0.376
				c-0.335,0-0.461-0.251-0.502-0.417c0-0.042-0.042-0.042-0.084-0.042s-0.042,0-0.042,0.042c-0.293,0.543-0.251,1.463-0.251,1.463
				c0,1.339,0.962,2.426,2.175,2.677c-0.335-0.167-0.585-0.501-0.628-0.878l0,0c-0.041-0.627,0.21-1.297,0.545-1.589
				c0,0-0.252,0.794,0.25,0.835c0.252,0,0.335-0.208,0.293-0.501c-0.167-0.879,0.502-1.213,0.502-1.171
				c-0.084,0.209-0.125,0.627,0.334,1.045c0.461,0.419,0.545,1.088,0.502,1.381c-0.082,0.376-0.376,0.795-0.709,0.962
				c0,0,0.041,0,0,0c1.17-0.209,2.09-1.171,2.216-2.384l0,0l0,0c0-0.084,0-0.209,0-0.294c0-0.334-0.042-0.626-0.167-0.919
				c0-0.042-0.043-0.084-0.043-0.168c0-0.042,0-0.083-0.041-0.125l0,0c-0.125-0.794,0.334-1.338,0.543-1.547
				C29.693,2.803,29.65,2.719,29.609,2.719z"/>
			<path fill="#808184" d="M48.807,25.715c-0.125-0.209-0.376-0.293-0.584-0.167l-1.967,1.046l-0.041,1.171l-0.795-0.46l0.459-2.05
				c0.043-0.209-0.125-0.46-0.334-0.502s-0.46,0.126-0.502,0.335l-0.586,2.677l1.715,0.962l-0.041,0.67h-5.145l-1.172-1.632
				l2.133-1.129l-0.293-1.548c-0.041-0.251-0.292-0.377-0.502-0.335c-0.25,0.042-0.375,0.293-0.334,0.502l0.168,0.921l-0.67,0.334
				l-0.795-1.045c-0.125-0.168-0.418-0.21-0.586-0.084c-0.166,0.125-0.208,0.418-0.082,0.585l0.711,0.962l-1.005,0.544l1.422,2.008
				h-5.604l2.342-3.681l-0.418-1.13c-0.083-0.208-0.334-0.334-0.543-0.251c-0.209,0.084-0.335,0.335-0.251,0.545l0.251,0.711
				l-0.502,0.794l-1.129-1.254c-0.168-0.168-0.419-0.21-0.586-0.042c-0.168,0.167-0.209,0.418-0.043,0.585l1.256,1.422l-1.422,2.218
				h-6.065v-5.563v-0.335v-0.602v-1.063l2.933,1.664h2.171c0-0.011,0-0.021,0-0.033L30.487,9.829h0.585V8.826h-1.588h-5.438h-1.59
				v1.003h0.586L21.16,23.465c0,0.012,0,0.022,0,0.033h2.21l2.893-1.664v1.063v0.602v0.335v6.065c0,0.292,0.21,0.502,0.502,0.502
				h9.034l-0.125,2.258l-1.506,0.795c-0.209,0.125-0.293,0.376-0.168,0.586c0.085,0.125,0.209,0.209,0.377,0.209
				c0.084,0,0.168,0,0.209-0.042l1.967-1.046l0.041-1.172l0.795,0.461l-0.459,2.05c-0.043,0.209,0.125,0.46,0.334,0.501
				c0.041,0,0.041,0,0.083,0c0.209,0,0.376-0.125,0.419-0.334l0.586-2.678l-1.716-0.961l0.042-0.669h5.939l1.17,1.63l-2.133,1.13
				l0.293,1.548C41.99,34.875,42.157,35,42.365,35c0.043,0,0.043,0,0.084,0c0.252-0.041,0.377-0.292,0.335-0.501l-0.167-0.921
				l0.669-0.334l0.796,1.045c0.083,0.126,0.208,0.168,0.334,0.168c0.082,0,0.167-0.042,0.251-0.084
				c0.167-0.125,0.208-0.418,0.083-0.585l-0.711-0.963l1.004-0.543l-1.38-1.924h4.308c0.293,0,0.502-0.209,0.502-0.503
				c0-0.293-0.209-0.502-0.502-0.502h-1.004l0.125-2.258l1.506-0.795C48.807,26.217,48.892,25.966,48.807,25.715z M31.324,22.963
				l-3.514-2.008l3.012-1.715L31.324,22.963z M30.613,18.027l-3.012-2.175l2.468-1.799L30.613,18.027z M29.567,10.331l0.335,2.51
				l-2.176-1.38L29.567,10.331z M27.267,9.829h1.255l-1.255,0.795V9.829z M27.267,12.382l1.841,1.129l-1.841,1.338V12.382z
				 M27.267,16.814l2.51,1.841l-2.51,1.422V16.814z M26.263,14.849l-1.84-1.338l1.84-1.129V14.849z M26.263,9.829v0.795
				l-1.255-0.795H26.263z M24.004,10.331l1.841,1.13l-2.175,1.38L24.004,10.331z M23.461,14.054l2.467,1.799l-3.01,2.175
				L23.461,14.054z M22.248,22.963l0.502-3.723l3.012,1.715L22.248,22.963z M23.754,18.697l2.509-1.883v3.305L23.754,18.697z"/>
		</g>
	</g>
</g>
</svg>
