<?xml version="1.0" encoding="utf-8"?>
<!-- Generator: Adobe Illustrator 14.0.0, SVG Export Plug-In . SVG Version: 6.00 Build 43363)  -->
<!DOCTYPE svg PUBLIC "-//W3C//DTD SVG 1.1//EN" "http://www.w3.org/Graphics/SVG/1.1/DTD/svg11.dtd">
<svg version="1.1" id="Layer_1" xmlns="http://www.w3.org/2000/svg" xmlns:xlink="http://www.w3.org/1999/xlink" x="0px" y="0px"
	 width="100px" height="100px" viewBox="0 0 100 100" enable-background="new 0 0 100 100" xml:space="preserve">
<g display="none">
	<g display="inline">
		<defs>
			<circle id="SVGID_1_" cx="50" cy="50" r="50"/>
		</defs>
		<clipPath id="SVGID_2_">
			<use xlink:href="#SVGID_1_"  overflow="visible"/>
		</clipPath>
		<g clip-path="url(#SVGID_2_)">
			<g>
				<rect x="-30.802" y="-3.869" fill="#034EA2" width="161.604" height="107.738"/>
				<path fill="#034EA2" d="M50,50.002"/>
			</g>
			<g>
				<polygon fill="#FFF100" points="46.557,19.605 49.967,17.117 53.377,19.605 52.079,15.581 55.543,13.092 51.273,13.092 
					49.967,9.019 48.66,13.097 44.394,13.092 47.854,15.581 				"/>
				<polygon fill="#FFF100" points="28.91,24.347 32.32,21.858 35.728,24.347 34.433,20.322 37.894,17.833 33.624,17.833 
					32.317,13.756 31.011,17.838 26.744,17.833 30.205,20.322 				"/>
				<polygon fill="#FFF100" points="19.407,26.697 18.101,30.779 13.834,30.775 17.295,33.264 15.997,37.288 19.407,34.799 
					22.817,37.288 21.52,33.264 24.981,30.775 20.714,30.775 				"/>
				<polygon fill="#FFF100" points="14.671,52.424 18.079,54.912 16.783,50.888 20.244,48.399 15.978,48.399 14.671,44.322 
					13.364,48.409 9.095,48.399 12.559,50.888 11.261,54.912 				"/>
				<polygon fill="#FFF100" points="20.714,66.078 19.407,62 18.101,66.082 13.834,66.078 17.295,68.566 15.997,72.59 
					19.407,70.098 22.817,72.59 21.52,68.566 24.981,66.078 				"/>
				<polygon fill="#FFF100" points="33.651,79.014 32.345,74.941 31.04,79.02 26.771,79.014 30.232,81.502 28.937,85.527 
					32.347,83.039 35.755,85.527 34.459,81.502 37.92,79.014 				"/>
				<polygon fill="#FFF100" points="51.275,83.701 49.969,79.625 48.665,83.707 44.396,83.701 47.856,86.191 46.562,90.215 
					49.972,87.727 53.379,90.215 52.081,86.191 55.545,83.701 				"/>
				<polygon fill="#FFF100" points="68.9,79.014 67.596,74.941 66.287,79.02 62.022,79.014 65.481,81.502 64.186,85.527 
					67.596,83.039 71.006,85.527 69.706,81.502 73.17,79.014 				"/>
				<polygon fill="#FFF100" points="81.842,66.078 80.533,62 79.224,66.082 74.959,66.078 78.423,68.566 77.123,72.59 
					80.533,70.098 83.943,72.59 82.643,68.566 86.106,66.078 				"/>
				<polygon fill="#FFF100" points="90.794,48.351 86.525,48.351 85.216,44.273 83.912,48.355 79.643,48.351 83.105,50.839 
					81.811,54.863 85.216,52.371 88.626,54.863 87.331,50.839 				"/>
				<polygon fill="#FFF100" points="77.123,37.234 80.533,34.746 83.943,37.234 82.643,33.21 86.106,30.726 81.842,30.726 
					80.533,26.648 79.224,30.73 74.959,30.726 78.423,33.21 				"/>
				<polygon fill="#FFF100" points="67.645,13.76 66.341,17.842 62.071,17.833 65.53,20.327 64.234,24.351 67.649,21.858 
					71.055,24.351 69.76,20.327 73.223,17.833 68.949,17.833 				"/>
			</g>
		</g>
	</g>
</g>
<g>
	<defs>
		<circle id="SVGID_3_" cx="50.001" cy="50" r="50"/>
	</defs>
	<clipPath id="SVGID_4_">
		<use xlink:href="#SVGID_3_"  overflow="visible"/>
	</clipPath>
	<g clip-path="url(#SVGID_4_)">
		<rect x="-7.461" y="-1.449" fill="#DE2910" width="164.705" height="110.013"/>
		<g transform="translate(5,5) scale(3)">
			<path id="s" fill="#FFDE00" d="M28.701,16.014l9.066,27.904L14.031,26.672h29.34L19.635,43.918L28.701,16.014z"/>
		</g>
		<g transform="translate(10,2) rotate(23.036243)">
			<path id="s_1_" fill="#FFDE00" d="M56.422,11.282l-0.859,9.742l-5.031-8.386l9,3.827L50,18.659L56.422,11.282z"/>
		</g>
		<g transform="translate(12,4) rotate(45.869898)">
			<path id="s_2_" fill="#FFDE00" d="M68.383,22.717l-4.571,8.646l-1.384-9.683l6.811,7.021l-9.636-1.677L68.383,22.717z"/>
		</g>
		<g transform="translate(12,7) rotate(69.945396)">
			<path id="s_3_" fill="#FFDE00" d="M69.522,39.959l-7.7,6.028l2.686-9.403l3.354,9.187l-8.112-5.461L69.522,39.959z"/>
		</g>
		<g transform="translate(10,9) rotate(20.659808)">
			<path id="s_4_" fill="#FFDE00" d="M56.224,47.194l-0.454,9.77l-5.375-8.17l9.15,3.45l-9.431,2.587L56.224,47.194z"/>
		</g>
	</g>
</g>
</svg>
