<svg version="1.1" id="Layer_1" xmlns="http://www.w3.org/2000/svg" xmlns:xlink="http://www.w3.org/1999/xlink" x="0px" y="0px" viewBox="0 0 450 60" enable-background="new 0 0 450 60" xml:space="preserve">
					<g>
						<path fill="#FFFFFF" d="M1.687,59.082V13.009h22.656c8.496,0,13.124,5.25,13.124,11.743c0,5.732-3.729,9.668-8.012,10.568
							c4.973,0.758,8.91,5.664,8.91,11.26c0,7.182-4.697,12.502-13.4,12.502H1.687z M29.178,26.064c0-3.384-2.349-5.94-6.424-5.94H9.769
							v11.879h12.985C26.83,32.004,29.178,29.586,29.178,26.064z M30.076,45.543c0-3.453-2.418-6.424-6.977-6.424H9.769v12.848h13.33
							C27.451,51.967,30.076,49.549,30.076,45.543z"></path>
						<path fill="#FFFFFF" d="M45.476,17.154c0-2.486,2.003-4.49,4.489-4.49c2.488,0,4.49,2.004,4.49,4.49
							c0,2.487-2.002,4.489-4.49,4.489C47.479,21.643,45.476,19.641,45.476,17.154z M46.304,59.082V25.718h7.253v33.364H46.304z"></path>
						<path fill="#FFFFFF" d="M102.803,59.082V13.009h20.308c9.669,0,14.989,6.563,14.989,14.436c0,7.807-5.387,14.368-14.989,14.368
							h-12.226v17.27H102.803z M129.812,27.445c0-4.42-3.247-7.32-7.805-7.32h-11.122v14.573h11.122
							C126.564,34.697,129.812,31.797,129.812,27.445z"></path>
						<path fill="#FFFFFF" d="M143.831,17.154c0-2.486,2.003-4.49,4.489-4.49c2.487,0,4.489,2.004,4.489,4.49
							c0,2.487-2.002,4.489-4.489,4.489C145.834,21.643,143.831,19.641,143.831,17.154z M144.659,59.082V25.718h7.253v33.364H144.659z"></path>
						<path fill="#FFFFFF" d="M162.824,51.275V32.004h-5.527v-6.286h5.527V16.6h7.251v9.118h6.771v6.286h-6.771V49.48
							c0,2.279,1.105,4.006,3.178,4.006c1.382,0,2.627-0.621,3.18-1.242l1.726,5.523c-1.313,1.176-3.454,2.143-6.771,2.143
							C165.724,59.91,162.824,56.871,162.824,51.275z"></path>
						<path fill="#FFFFFF" d="M181.333,42.367c0-10.086,7.115-17.477,17.2-17.477c6.562,0,10.43,2.762,12.776,5.939l-4.764,4.353
							c-1.864-2.625-4.421-3.867-7.667-3.867c-6.01,0-10.084,4.559-10.084,11.053c0,6.492,4.075,11.119,10.084,11.119
							c3.247,0,5.804-1.383,7.667-4.006l4.764,4.49c-2.347,3.107-6.215,5.939-12.776,5.939C188.448,59.91,181.333,52.449,181.333,42.367z
							"></path>
						<path fill="#FFFFFF" d="M240.316,59.082v-21c0-5.248-2.625-6.768-6.699-6.768c-3.73,0-6.908,2.211-8.564,4.418v23.35h-7.254V13.009
							h7.254v17.199c2.21-2.625,6.492-5.318,11.742-5.318c7.184,0,10.775,3.729,10.775,10.567v23.625H240.316z"></path>
						<path fill="#FFFFFF" d="M256.961,59.082V13.009h7.254v17.336c2.691-3.591,6.563-5.456,10.705-5.456
							c8.635,0,14.852,6.7,14.852,17.477c0,11.049-6.287,17.543-14.852,17.543c-4.281,0-8.15-2.072-10.705-5.387v4.559H256.961z
							 M272.85,53.486c5.732,0,9.393-4.627,9.393-11.119c0-6.426-3.66-11.053-9.393-11.053c-3.455,0-6.979,2.002-8.635,4.488v13.264
							C265.871,51.553,269.395,53.486,272.85,53.486z"></path>
						<path fill="#FFFFFF" d="M334.734,42.367c0-9.604,6.492-17.477,17.131-17.477c10.637,0,17.129,7.874,17.129,17.477
							c0,9.531-6.492,17.543-17.129,17.543C341.227,59.91,334.734,51.898,334.734,42.367z M361.465,42.367
							c0-5.873-3.385-11.053-9.6-11.053c-6.148,0-9.602,5.18-9.602,11.053c0,5.939,3.453,11.119,9.602,11.119
							C358.08,53.486,361.465,48.307,361.465,42.367z"></path>
						<path fill="#009345" stroke="#009345" stroke-width="4" d="M447.744,0.587c-0.367-0.357-0.904-0.525-1.574-0.493l-0.193,0.007
							c-3.41,0.315-6.805,0.642-10.213,0.957c-0.455,0.045-1.08,0.098-1.549,0.614c-0.15,0.164-0.262,0.35-0.348,0.569
							c-0.453,1.119,0.289,1.794,0.641,2.115l0.895,0.827c0.615,0.574,1.248,1.146,1.875,1.709L417.6,28.499l-9.703-8.843
							c-0.578-0.526-1.34-0.806-2.133-0.769c-0.793,0.036-1.512,0.384-2.041,0.964l-5.352,5.867h-0.023l-14.713,16.095V13.009h-7.252
							v46.073h7.252v-8.98l4.697-4.836l10.154,13.816h9.117l-14.09-18.236l2.865-3.139c0.184-0.127,0.357-0.27,0.512-0.439l9.256-10.155
							l9.703,8.84c0.578,0.529,1.338,0.809,2.131,0.77c0.795-0.035,1.512-0.383,2.053-0.963l22.199-24.362l2.756,2.499
							c0.326,0.299,0.783,0.713,1.443,0.682c0.275-0.014,0.549-0.098,0.83-0.269c0.188-0.116,0.348-0.246,0.486-0.396
							c0.496-0.541,0.559-1.206,0.559-1.722c-0.006-2.221,0-4.437,0.006-6.668V2.188C448.318,1.487,448.135,0.955,447.744,0.587z"></path>
						<g class="logoRotate">
							<path fill="#009345" d="M81.871,32.201c-0.265,0.166-0.346,0.518-0.177,0.783c0.007,0.012,0.212,0.348,0.368,0.926h-7.56
								c0.153-0.545,0.348-0.879,0.38-0.932c0.165-0.262,0.085-0.613-0.179-0.779c-0.264-0.166-0.616-0.086-0.782,0.178
								c-0.032,0.051-3.008,4.973,3.46,9.994c-5.619,4.803-4.392,9.99-4.333,10.221c0.065,0.256,0.296,0.428,0.549,0.428
								c0.044,0,0.091-0.006,0.136-0.016c0.304-0.078,0.488-0.387,0.416-0.689c-0.017-0.059-0.115-0.494-0.122-1.188h8.519
								c-0.007,0.693-0.106,1.127-0.12,1.188c-0.077,0.303,0.106,0.611,0.411,0.689c0.046,0.012,0.094,0.018,0.141,0.018
								c0.254-0.002,0.485-0.174,0.549-0.43c0.058-0.23,1.285-5.418-4.334-10.223c6.469-5.02,3.491-9.943,3.463-9.994
								C82.487,32.115,82.137,32.033,81.871,32.201 M82.425,49.678l-8.276,0.002c0.126-0.738,0.371-1.582,0.812-2.492h6.655
								C82.058,48.1,82.3,48.943,82.425,49.678 M80.758,45.736h-4.939c0.607-0.867,1.407-1.762,2.469-2.646
								C79.351,43.975,80.151,44.869,80.758,45.736 M78.288,41.639c-0.974-0.729-1.72-1.449-2.289-2.145h4.572
								C80.002,40.189,79.259,40.91,78.288,41.639 M81.537,38.041h-6.51c-0.521-1.002-0.7-1.914-0.711-2.68h7.928
								C82.23,36.129,82.053,37.041,81.537,38.041"></path>
							<path fill="#009345" stroke="#009345" stroke-width="4" d="M78.288,59.082c-9.106,0-16.516-7.41-16.516-16.516
								c0-9.109,7.41-16.517,16.516-16.517s16.515,7.407,16.515,16.517C94.803,51.672,87.394,59.082,78.288,59.082 M78.288,27.731
								c-8.179,0-14.833,6.655-14.833,14.835c0,8.178,6.654,14.834,14.833,14.834s14.834-6.656,14.834-14.834
								C93.122,34.387,86.467,27.731,78.288,27.731"></path>
						</g>
						<path fill="#FFFFFF" d="M295.484,42.367c0-9.604,6.494-17.477,17.131-17.477s17.129,7.874,17.129,17.477
							c0,9.531-6.492,17.543-17.129,17.543S295.484,51.898,295.484,42.367z M322.217,42.367c0-5.873-3.387-11.053-9.602-11.053
							c-6.148,0-9.6,5.18-9.6,11.053c0,5.939,3.451,11.119,9.6,11.119C318.83,53.486,322.217,48.307,322.217,42.367z"></path>
					</g>
					</svg>