<?xml version="1.0" encoding="utf-8"?>
<!-- Generator: Adobe Illustrator 14.0.0, SVG Export Plug-In . SVG Version: 6.00 Build 43363)  -->
<!DOCTYPE svg PUBLIC "-//W3C//DTD SVG 1.1//EN" "http://www.w3.org/Graphics/SVG/1.1/DTD/svg11.dtd">
<svg version="1.1" id="Layer_1" xmlns="http://www.w3.org/2000/svg" xmlns:xlink="http://www.w3.org/1999/xlink" x="0px" y="0px"
	 width="35px" height="35px" viewBox="0 0 35 35" enable-background="new 0 0 35 35" xml:space="preserve">
<path fill="#F05A28" d="M17.5,0C7.836,0,0,7.834,0,17.5S7.836,35,17.5,35C27.166,35,35,27.166,35,17.5S27.166,0,17.5,0z M17.5,4.375
	c4.071,0,7.887,1.883,10.367,5.075l2.311-0.828L28.568,17.5l-6.885-5.833l2.005-0.719c-1.657-1.564-3.861-2.46-6.188-2.46
	c-4.478,0-8.203,3.283-8.896,7.569L5.13,13.113C6.938,8.027,11.801,4.375,17.5,4.375z M17.5,30.625
	c-4.071,0-7.886-1.883-10.367-5.075l-2.311,0.828L6.432,17.5l6.886,5.833l-2.005,0.719c1.656,1.564,3.861,2.46,6.188,2.46
	c4.67,0,8.521-3.568,8.969-8.124l3.563,3.019C28.365,26.74,23.377,30.625,17.5,30.625z"/>
</svg>
