<?xml version="1.0" encoding="utf-8"?>
<!-- Generator: Adobe Illustrator 14.0.0, SVG Export Plug-In . SVG Version: 6.00 Build 43363)  -->
<!DOCTYPE svg PUBLIC "-//W3C//DTD SVG 1.1//EN" "http://www.w3.org/Graphics/SVG/1.1/DTD/svg11.dtd">
<svg version="1.1" id="Layer_1" xmlns="http://www.w3.org/2000/svg" xmlns:xlink="http://www.w3.org/1999/xlink" x="0px" y="0px"
	 width="234.06px" height="49.53px" viewBox="0 0 234.06 49.53" enable-background="new 0 0 234.06 49.53" xml:space="preserve">
<g>
	<g>
		<path fill="#FFFFFF" d="M19.901,6.83h4.752L14.256,32.019h-3.858L0,6.83h4.858l7.539,19.222L19.901,6.83z"/>
		<path fill="#FFFFFF" d="M49.309,31.841h-4.645l-2.537-6.039H30.3l-2.571,6.039h-4.503L34.23,6.651h4.073L49.309,31.841z
			 M36.195,11.903l-4.287,10.005h8.61L36.195,11.903z"/>
		<path fill="#FFFFFF" d="M69.64,31.841l-6.146-8.718h-5.502v8.718h-4.395V6.83h11.148c5.752,0,9.29,3.037,9.29,7.933
			c0,4.144-2.466,6.645-5.968,7.609l6.754,9.469H69.64z M64.388,10.832h-6.396v8.396h6.432c3.145,0,5.146-1.644,5.146-4.217
			C69.568,12.26,67.639,10.832,64.388,10.832z"/>
		<path fill="#FFFFFF" d="M95.474,31.841l-6.146-8.718h-5.503v8.718h-4.395V6.83h11.148c5.752,0,9.289,3.037,9.289,7.933
			c0,4.144-2.465,6.645-5.967,7.609l6.753,9.469H95.474z M90.221,10.832h-6.396v8.396h6.432c3.145,0,5.146-1.644,5.146-4.217
			C95.402,12.26,93.473,10.832,90.221,10.832z"/>
		<path fill="#FFFFFF" d="M117.198,32.269c-7.681,0-13.042-5.824-13.042-12.898c0-7.075,5.431-12.97,13.114-12.97
			c7.681,0,13.042,5.824,13.042,12.898C130.313,26.374,124.881,32.269,117.198,32.269z M117.198,10.438
			c-4.966,0-8.432,3.966-8.432,8.861c0,4.896,3.537,8.933,8.504,8.933c4.966,0,8.433-3.966,8.433-8.861
			S122.166,10.438,117.198,10.438z"/>
	</g>
	<g>
		<path fill="#8BC53F" d="M103.382,11.857c0.111-0.204,0.227-0.406,0.347-0.604l1.898,1.147c-0.104,0.171-0.204,0.344-0.3,0.52
			L103.382,11.857z"/>
		<path fill="#8BC53F" d="M113.867,1.859c0.257-0.05,0.515-0.095,0.774-0.134l0.639,4.242c-0.198,0.03-0.395,0.063-0.591,0.102
			L113.867,1.859z"/>
		<path fill="#808184" d="M135.08,4.174c0.223,0.26,0.441,0.524,0.654,0.794l-7.697,6.057c-0.123-0.157-0.25-0.311-0.381-0.462
			L135.08,4.174z"/>
		<path fill="#009345" d="M110.506,3.918c0.226-0.1,0.456-0.194,0.688-0.284l1.195,3.097c-0.186,0.072-0.371,0.148-0.555,0.228
			L110.506,3.918z"/>
		<path fill="#8BC53F" d="M133.17,3.188c0.238,0.232,0.471,0.47,0.699,0.712l-6.613,6.216c-0.137-0.146-0.275-0.288-0.42-0.427
			L133.17,3.188z"/>
		<path fill="#808184" d="M104.839,9.472c0.146-0.182,0.296-0.361,0.451-0.537l1.75,1.534c-0.131,0.15-0.26,0.303-0.385,0.459
			L104.839,9.472z"/>
		<path fill="#8BC53F" d="M103.704,11.238c0.12-0.199,0.244-0.396,0.373-0.589l1.87,1.247c-0.11,0.166-0.218,0.334-0.32,0.505
			L103.704,11.238z"/>
		<path fill="#2248AB" d="M157.238,12.036c0.109,0.583,0.205,1.17,0.287,1.759l-26.699,3.767c-0.027-0.198-0.059-0.395-0.096-0.592
			L157.238,12.036z"/>
		<path fill="#8BC53F" d="M119.518,0.218c0.281,0.032,0.561,0.071,0.842,0.115l-0.902,5.653c-0.197-0.032-0.395-0.059-0.592-0.082
			L119.518,0.218z"/>
		<path fill="#2248AB" d="M103.091,12.49c0.102-0.208,0.209-0.414,0.32-0.617l1.916,1.047c-0.096,0.175-0.188,0.353-0.274,0.532
			L103.091,12.49z"/>
		<path fill="#009345" d="M126.66,0.841c0.27,0.137,0.541,0.28,0.807,0.429l-3.504,6.277c-0.174-0.098-0.35-0.191-0.529-0.281
			L126.66,0.841z"/>
		<path fill="#00A69C" d="M107.113,6.749c0.186-0.149,0.375-0.294,0.567-0.435l1.564,2.136c-0.162,0.118-0.32,0.239-0.477,0.364
			L107.113,6.749z"/>
		<path fill="#808184" d="M128.523,1.299c0.266,0.164,0.529,0.333,0.785,0.509l-4.326,6.367c-0.166-0.111-0.332-0.22-0.502-0.325
			L128.523,1.299z"/>
		<path fill="#8BC53F" d="M143.689,10.852c0.127,0.386,0.244,0.775,0.352,1.166l-13.582,3.785c-0.053-0.191-0.109-0.383-0.172-0.573
			L143.689,10.852z"/>
		<path fill="#8BC53F" d="M139.842,7.415c0.176,0.33,0.346,0.663,0.508,1l-10.732,5.148c-0.086-0.18-0.176-0.358-0.27-0.535
			L139.842,7.415z"/>
		<path fill="#8BC53F" d="M108.665,5.181c0.21-0.126,0.421-0.249,0.635-0.366l1.461,2.672c-0.175,0.096-0.349,0.195-0.52,0.299
			L108.665,5.181z"/>
		<path fill="#808184" d="M154.887,10.753c0.129,0.549,0.242,1.102,0.348,1.656L130.73,16.97c-0.035-0.196-0.076-0.392-0.123-0.586
			L154.887,10.753z"/>
		<path fill="#808184" d="M142.746,9.906c0.141,0.372,0.271,0.748,0.395,1.125l-12.854,4.198c-0.063-0.189-0.129-0.378-0.199-0.565
			L142.746,9.906z"/>
		<path fill="#FAB512" d="M145.514,11.608c0.115,0.412,0.221,0.828,0.316,1.245l-15.223,3.53c-0.045-0.195-0.094-0.389-0.148-0.581
			L145.514,11.608z"/>
		<path fill="#8BC53F" d="M135.742,4.963c0.211,0.27,0.416,0.543,0.617,0.822l-7.961,5.718c-0.117-0.162-0.236-0.322-0.361-0.479
			L135.742,4.963z"/>
		<path fill="#8BC53F" d="M125.789,0.546c0.277,0.124,0.551,0.254,0.822,0.39l-3.178,6.33c-0.178-0.089-0.357-0.175-0.541-0.257
			L125.789,0.546z"/>
		<path fill="#8BC53F" d="M124.949,0.196c0.283,0.112,0.563,0.23,0.838,0.354l-2.895,6.459c-0.182-0.082-0.365-0.159-0.553-0.233
			L124.949,0.196z"/>
		<path fill="#808184" d="M129.537,1.475c0.264,0.179,0.521,0.364,0.777,0.554l-4.844,6.495c-0.16-0.12-0.324-0.235-0.488-0.349
			L129.537,1.475z"/>
		<path fill="#8BC53F" d="M102.003,19.201c0.004-0.224,0.013-0.448,0.026-0.671l1.651,0.102c-0.012,0.199-0.02,0.398-0.023,0.598
			L102.003,19.201z"/>
		<path fill="#00ADEE" d="M102.657,13.81c0.083-0.214,0.171-0.426,0.264-0.637l1.88,0.823c-0.081,0.183-0.157,0.368-0.229,0.554
			L102.657,13.81z"/>
		<path fill="#808184" d="M111.813,3.141c0.238-0.08,0.479-0.156,0.722-0.226l0.99,3.435c-0.192,0.055-0.383,0.114-0.572,0.178
			L111.813,3.141z"/>
		<path fill="#2248AB" d="M118.66,0.282c0.281,0.02,0.561,0.046,0.84,0.078l-0.635,5.544c-0.199-0.023-0.398-0.041-0.598-0.055
			L118.66,0.282z"/>
		<path fill="#8BC53F" d="M117.805,0.624c0.277,0.007,0.552,0.021,0.828,0.04l-0.365,5.186c-0.199-0.014-0.4-0.024-0.599-0.029
			L117.805,0.624z"/>
		<path fill="#808184" d="M140.959,8.123c0.164,0.346,0.322,0.696,0.475,1.048l-11.568,4.937c-0.078-0.183-0.16-0.365-0.248-0.545
			L140.959,8.123z"/>
		<path fill="#808184" d="M134.225,3.568c0.232,0.247,0.459,0.5,0.682,0.757l-7.25,6.238c-0.129-0.152-0.264-0.3-0.4-0.446
			L134.225,3.568z"/>
		<path fill="#808184" d="M101.973,17.848c0.024-0.224,0.053-0.448,0.086-0.671l1.748,0.263c-0.029,0.198-0.056,0.395-0.076,0.594
			L101.973,17.848z"/>
		<path fill="#8BC53F" d="M127.512,1.189c0.27,0.149,0.531,0.304,0.793,0.464L124.48,7.85c-0.172-0.105-0.342-0.206-0.518-0.303
			L127.512,1.189z"/>
		<path fill="#2248AB" d="M114.596,1.414c0.263-0.04,0.529-0.074,0.795-0.102l0.483,4.578c-0.197,0.021-0.396,0.046-0.593,0.076
			L114.596,1.414z"/>
		<path fill="#808184" d="M124.055,0c0.285,0.099,0.568,0.204,0.848,0.315l-2.563,6.46c-0.184-0.073-0.373-0.143-0.561-0.208
			L124.055,0z"/>
		<path fill="#00ADEE" d="M104.075,10.647c0.129-0.193,0.263-0.384,0.398-0.572l1.817,1.329c-0.118,0.162-0.233,0.325-0.344,0.492
			L104.075,10.647z"/>
		<path fill="#2248AB" d="M102.862,13.148c0.093-0.211,0.189-0.421,0.291-0.628l1.899,0.933c-0.089,0.179-0.173,0.36-0.252,0.543
			L102.862,13.148z"/>
		<path fill="#8BC53F" d="M120.375,0.233c0.281,0.045,0.561,0.096,0.84,0.153l-1.168,5.707c-0.195-0.04-0.391-0.075-0.59-0.106
			L120.375,0.233z"/>
		<path fill="#009345" d="M132.26,2.712c0.244,0.218,0.486,0.442,0.721,0.672l-6.145,6.306c-0.143-0.14-0.289-0.276-0.438-0.409
			L132.26,2.712z"/>
		<path fill="#00ADEE" d="M113.195,2.432c0.249-0.061,0.501-0.115,0.752-0.164l0.742,3.801c-0.196,0.038-0.392,0.081-0.585,0.127
			L113.195,2.432z"/>
		<path fill="#00A69C" d="M131.49,2.098c0.254,0.207,0.502,0.42,0.748,0.639l-5.84,6.544c-0.148-0.133-0.301-0.263-0.455-0.389
			L131.49,2.098z"/>
		<path fill="#808184" d="M102.313,15.144c0.063-0.219,0.131-0.437,0.204-0.653l1.851,0.623c-0.063,0.189-0.123,0.38-0.178,0.572
			L102.313,15.144z"/>
		<path fill="#00A69C" d="M130.354,1.975c0.256,0.191,0.508,0.388,0.756,0.59l-5.166,6.327c-0.156-0.126-0.313-0.25-0.473-0.368
			L130.354,1.975z"/>
		<path fill="#2248AB" d="M109.188,4.61c0.217-0.119,0.437-0.232,0.659-0.342l1.445,2.944c-0.181,0.088-0.357,0.18-0.532,0.275
			L109.188,4.61z"/>
		<path fill="#00ADEE" d="M102.104,16.497c0.043-0.222,0.092-0.443,0.145-0.664l1.787,0.432c-0.046,0.194-0.089,0.39-0.128,0.585
			L102.104,16.497z"/>
		<path fill="#FAB512" d="M102.042,17.174c0.032-0.223,0.072-0.445,0.114-0.667l1.752,0.343c-0.038,0.196-0.071,0.392-0.102,0.59
			L102.042,17.174z"/>
		<path fill="#009345" d="M116.987,1.085c0.27-0.005,0.537-0.004,0.807,0.003l-0.125,4.731c-0.199-0.005-0.398-0.006-0.6-0.002
			L116.987,1.085z"/>
		<path fill="#808184" d="M206.773,10.831c0.127,1.309,0.225,2.62,0.295,3.933l-76.127,3.99c-0.01-0.2-0.023-0.399-0.043-0.598
			L206.773,10.831z"/>
		<path fill="#009345" d="M121.242,0.256c0.281,0.057,0.561,0.121,0.84,0.19l-1.451,5.779c-0.193-0.049-0.389-0.093-0.584-0.133
			L121.242,0.256z"/>
		<path fill="#808184" d="M105.594,8.256c0.163-0.171,0.331-0.339,0.503-0.503l1.771,1.851c-0.145,0.138-0.285,0.279-0.424,0.423
			L105.594,8.256z"/>
		<path fill="#808184" d="M105.148,8.812c0.155-0.177,0.315-0.352,0.479-0.523l1.816,1.739c-0.138,0.145-0.273,0.292-0.404,0.442
			L105.148,8.812z"/>
		<path fill="#8BC53F" d="M102.234,15.829c0.054-0.22,0.112-0.439,0.174-0.658l1.782,0.514c-0.056,0.191-0.107,0.385-0.154,0.579
			L102.234,15.829z"/>
		<path fill="#808184" d="M122.117,0.299c0.281,0.07,0.561,0.147,0.838,0.23l-1.746,5.855c-0.191-0.058-0.385-0.11-0.578-0.159
			L122.117,0.299z"/>
		<path fill="#009345" d="M106.038,7.691c0.172-0.165,0.347-0.326,0.527-0.483l1.745,1.991c-0.151,0.131-0.298,0.267-0.442,0.405
			L106.038,7.691z"/>
		<path fill="#2248AB" d="M142.23,8.83c0.156,0.365,0.303,0.732,0.443,1.104l-12.586,4.73c-0.07-0.187-0.145-0.372-0.223-0.556
			L142.23,8.83z"/>
		<path fill="#00A69C" d="M138.969,6.628c0.188,0.317,0.369,0.638,0.543,0.963l-10.164,5.437c-0.094-0.175-0.193-0.35-0.295-0.522
			L138.969,6.628z"/>
		<path fill="#00A69C" d="M138.385,5.691c0.201,0.308,0.396,0.621,0.584,0.938l-9.916,5.877c-0.102-0.171-0.207-0.341-0.316-0.508
			L138.385,5.691z"/>
		<path fill="#009345" d="M111.114,3.428c0.234-0.091,0.471-0.177,0.709-0.256l1.13,3.356c-0.189,0.063-0.378,0.131-0.563,0.203
			L111.114,3.428z"/>
		<path fill="#00A69C" d="M136.684,5.553c0.203,0.283,0.4,0.571,0.592,0.863l-8.539,5.582c-0.109-0.167-0.223-0.332-0.338-0.494
			L136.684,5.553z"/>
		<path fill="#2248AB" d="M112.517,2.851c0.242-0.07,0.488-0.135,0.733-0.194l0.854,3.539c-0.195,0.047-0.387,0.098-0.579,0.154
			L112.517,2.851z"/>
		<path fill="#2248AB" d="M108.104,5.659c0.201-0.135,0.407-0.265,0.614-0.391l1.523,2.518c-0.171,0.104-0.34,0.21-0.506,0.322
			L108.104,5.659z"/>
		<path fill="#009345" d="M102.437,14.463c0.072-0.218,0.15-0.434,0.233-0.647l1.901,0.733c-0.071,0.187-0.139,0.375-0.203,0.563
			L102.437,14.463z"/>
		<path fill="#808184" d="M115.387,1.283c0.266-0.028,0.534-0.05,0.801-0.067l0.283,4.625c-0.199,0.013-0.398,0.029-0.598,0.05
			L115.387,1.283z"/>
		<path fill="#808184" d="M101.986,18.527c0.014-0.225,0.032-0.448,0.056-0.671l1.688,0.179c-0.021,0.198-0.038,0.397-0.05,0.597
			L101.986,18.527z"/>
		<path fill="#FAB512" d="M123.1,0.041c0.285,0.085,0.566,0.176,0.848,0.273l-2.168,6.254c-0.189-0.065-0.379-0.126-0.57-0.183
			L123.1,0.041z"/>
		<path fill="#808184" d="M107.524,6.1c0.195-0.143,0.394-0.282,0.596-0.416l1.615,2.424c-0.166,0.11-0.329,0.225-0.49,0.343
			L107.524,6.1z"/>
		<path fill="#2248AB" d="M196.373,8.316c0.164,1.156,0.301,2.316,0.412,3.479l-65.887,6.361c-0.02-0.198-0.043-0.397-0.072-0.594
			L196.373,8.316z"/>
		<path fill="#FAB512" d="M116.184,1.18c0.268-0.016,0.535-0.027,0.805-0.032l0.08,4.669c-0.199,0.003-0.398,0.011-0.598,0.023
			L116.184,1.18z"/>
		<path fill="#808184" d="M104.454,10.06c0.138-0.188,0.279-0.374,0.424-0.556l1.777,1.424c-0.125,0.156-0.246,0.314-0.364,0.476
			L104.454,10.06z"/>
		<path fill="#808184" d="M109.834,4.241c0.223-0.11,0.448-0.214,0.675-0.313l1.326,3.032c-0.182,0.08-0.363,0.165-0.542,0.252
			L109.834,4.241z"/>
		<path fill="#00A69C" d="M106.565,7.208c0.178-0.157,0.361-0.31,0.548-0.459l1.655,2.066c-0.155,0.125-0.309,0.253-0.458,0.385
			L106.565,7.208z"/>
		<path fill="#8BC53F" d="M127.199,31.583c-0.176,0.146-0.355,0.287-0.539,0.424l-1.189-1.596c0.16-0.119,0.316-0.242,0.473-0.367
			L127.199,31.583z"/>
		<path fill="#8BC53F" d="M131.582,31.751c-0.182,0.207-0.365,0.412-0.553,0.613l-3.773-3.545c0.137-0.146,0.271-0.295,0.4-0.447
			L131.582,31.751z"/>
		<path fill="#2248AB" d="M234.064,25.587c-0.09,1.707-0.217,3.414-0.381,5.115L130.898,20.78c0.02-0.199,0.033-0.398,0.043-0.598
			L234.064,25.587z"/>
		<path fill="#8BC53F" d="M128.141,31.608c-0.178,0.158-0.357,0.313-0.543,0.463l-1.654-2.027c0.154-0.127,0.307-0.256,0.455-0.389
			L128.141,31.608z"/>
		<path fill="#009345" d="M139.154,28.792c-0.135,0.32-0.279,0.637-0.43,0.949l-9.107-4.369c0.088-0.18,0.17-0.361,0.248-0.545
			L139.154,28.792z"/>
		<path fill="#00A69C" d="M196.373,30.62c-0.162,1.156-0.352,2.309-0.564,3.457L130.73,21.966c0.037-0.197,0.068-0.394,0.096-0.592
			L196.373,30.62z"/>
		<path fill="#808184" d="M195.809,34.077c-0.215,1.148-0.453,2.291-0.717,3.43l-64.484-14.955c0.047-0.194,0.088-0.39,0.123-0.586
			L195.809,34.077z"/>
		<path fill="#FAB512" d="M203.375,27.776c-0.123,1.26-0.271,2.516-0.447,3.768l-72.102-10.169c0.029-0.198,0.053-0.396,0.072-0.595
			L203.375,27.776z"/>
		<path fill="#8BC53F" d="M133.563,31.142c-0.17,0.236-0.346,0.471-0.527,0.701l-4.998-3.934c0.125-0.156,0.244-0.314,0.361-0.477
			L133.563,31.142z"/>
		<path fill="#808184" d="M134.748,29.806c-0.152,0.254-0.309,0.506-0.469,0.754l-5.543-3.623c0.109-0.166,0.215-0.336,0.316-0.508
			L134.748,29.806z"/>
		<path fill="#00ADEE" d="M132.791,31.651c-0.178,0.227-0.361,0.449-0.549,0.668l-4.586-3.947c0.131-0.15,0.258-0.305,0.381-0.463
			L132.791,31.651z"/>
		<path fill="#2248AB" d="M126.566,31.882c-0.182,0.137-0.365,0.268-0.553,0.395l-1.031-1.518c0.164-0.111,0.328-0.227,0.488-0.348
			L126.566,31.882z"/>
		<path fill="#00ADEE" d="M134.166,30.487c-0.16,0.246-0.328,0.488-0.5,0.729l-5.268-3.783c0.115-0.164,0.229-0.328,0.338-0.496
			L134.166,30.487z"/>
		<path fill="#00ADEE" d="M130.604,31.966c-0.182,0.193-0.371,0.383-0.561,0.57l-3.207-3.291c0.145-0.139,0.283-0.281,0.42-0.426
			L130.604,31.966z"/>
		<path fill="#FAB512" d="M129.84,32.327c-0.189,0.184-0.381,0.363-0.578,0.537l-2.863-3.209c0.148-0.135,0.295-0.27,0.438-0.41
			L129.84,32.327z"/>
		<path fill="#009345" d="M148.934,31.354c-0.174,0.463-0.357,0.922-0.551,1.377l-18.518-7.904c0.078-0.184,0.152-0.369,0.223-0.557
			L148.934,31.354z"/>
		<path fill="#808184" d="M164.865,30.497c-0.162,0.695-0.338,1.387-0.531,2.074l-33.875-9.438c0.055-0.193,0.104-0.386,0.148-0.581
			L164.865,30.497z"/>
		<path fill="#00A69C" d="M159.971,33.399c-0.203,0.625-0.42,1.244-0.652,1.859l-29.23-10.988c0.07-0.186,0.137-0.375,0.199-0.564
			L159.971,33.399z"/>
		<path fill="#00A69C" d="M163.91,32.454c-0.189,0.682-0.395,1.359-0.613,2.031l-33.01-10.779c0.063-0.19,0.119-0.381,0.172-0.573
			L163.91,32.454z"/>
		<path fill="#2248AB" d="M137.729,30.39c-0.16,0.301-0.326,0.596-0.498,0.887l-8.178-4.848c0.102-0.172,0.201-0.346,0.295-0.521
			L137.729,30.39z"/>
		<path fill="#808184" d="M138.213,29.495c-0.148,0.307-0.301,0.609-0.461,0.908l-8.404-4.496c0.094-0.176,0.184-0.355,0.27-0.535
			L138.213,29.495z"/>
	</g>
	<g>
		<path fill="#FFFFFF" d="M25.793,49.315l-1.566-3.449h-7.269l-1.565,3.449h-0.951l5.737-12.406h0.88l5.737,12.406H25.793z
			 M20.601,37.913l-3.255,7.127h6.493L20.601,37.913z"/>
		<path fill="#FFFFFF" d="M38.955,49.315L30.279,38.37v10.945h-0.88V36.997h0.862l8.5,10.717V36.997h0.88v12.318H38.955z"/>
		<path fill="#FFFFFF" d="M53.596,49.315l-1.566-3.449h-7.269l-1.566,3.449h-0.95l5.737-12.406h0.88l5.737,12.406H53.596z
			 M48.403,37.913l-3.256,7.127h6.494L48.403,37.913z"/>
		<path fill="#FFFFFF" d="M57.201,49.315V36.997h0.915v11.475h7.232v0.844H57.201z"/>
		<path fill="#FFFFFF" d="M70.733,44.423v4.893h-0.915v-4.873l-5.278-7.445h1.143l4.611,6.617l4.628-6.617h1.091L70.733,44.423z"/>
		<path fill="#FFFFFF" d="M82.734,37.843v11.473h-0.915V37.843h-4.295v-0.846h9.504v0.846H82.734z"/>
		<path fill="#FFFFFF" d="M89.931,49.315V36.997h0.916v12.318H89.931z"/>
		<path fill="#FFFFFF" d="M100.208,49.526c-3.521,0-6.125-2.797-6.125-6.334v-0.035c0-3.484,2.604-6.371,6.16-6.371
			c2.199,0,3.52,0.809,4.786,1.971l-0.651,0.67c-1.072-1.039-2.305-1.813-4.152-1.813c-2.957,0-5.192,2.41-5.192,5.508v0.035
			c0,3.115,2.27,5.543,5.21,5.543c1.777,0,2.991-0.686,4.24-1.918l0.616,0.598C103.798,48.665,102.39,49.526,100.208,49.526z"/>
		<path fill="#FFFFFF" d="M111.786,49.491c-1.971,0-3.484-0.65-4.963-1.971l0.599-0.686c1.354,1.25,2.604,1.83,4.417,1.83
			c1.848,0,3.115-1.039,3.115-2.445v-0.035c0-1.303-0.687-2.061-3.485-2.623c-2.956-0.598-4.151-1.602-4.151-3.467V40.06
			c0-1.83,1.671-3.238,3.958-3.238c1.795,0,2.974,0.492,4.224,1.496l-0.58,0.721c-1.162-1.002-2.323-1.389-3.678-1.389
			c-1.813,0-3.011,1.037-3.011,2.322v0.035c0,1.303,0.669,2.094,3.59,2.691c2.853,0.582,4.047,1.602,4.047,3.396v0.037
			C115.868,48.12,114.162,49.491,111.786,49.491z"/>
	</g>
</g>
</svg>
