<?xml version="1.0" encoding="utf-8"?>
<!-- Generator: Adobe Illustrator 14.0.0, SVG Export Plug-In . SVG Version: 6.00 Build 43363)  -->
<!DOCTYPE svg PUBLIC "-//W3C//DTD SVG 1.1//EN" "http://www.w3.org/Graphics/SVG/1.1/DTD/svg11.dtd">
<svg version="1.1" id="Layer_1" xmlns="http://www.w3.org/2000/svg" xmlns:xlink="http://www.w3.org/1999/xlink" x="0px" y="0px"
	 width="199.23px" height="200px" viewBox="0 0 199.23 200" enable-background="new 0 0 199.23 200" xml:space="preserve">
<path fill-rule="evenodd" clip-rule="evenodd" fill="#FFFFFF" d="M127.336,118.657c7.941-3.873,18.002-2.712,24.588,4.063
	l41.031,41.035c8.326,8.131,8.326,21.68,0,30.002l0,0c-8.32,8.324-21.869,8.324-30,0l-41.037-41.034
	c-6.773-6.582-7.936-16.646-4.063-24.585l-9.102-9.096c-12.193,9.677-27.098,14.71-42.003,14.71
	c-17.03,0-34.067-6.579-47.226-19.548C6.556,101.04-0.029,84.006-0.029,66.782c0-17.037,6.585-34.068,19.554-47.232
	C32.683,6.582,49.72,0,66.75,0c17.227,0,34.263,6.582,47.232,19.55c13.164,13.164,19.744,30.195,19.744,47.232
	c0,15.29-5.229,30.385-15.486,42.773L127.336,118.657z M103.922,105.298c0.189,0,0.189-0.192,0.385-0.192
	c0-0.195,0.189-0.388,0.385-0.388c10.453-10.452,15.682-24.197,15.682-37.936c0-13.552-5.229-27.296-15.682-37.745
	C94.24,18.582,80.496,13.356,66.75,13.356c-13.549,0-27.293,5.226-37.739,15.681C18.553,39.486,13.331,53.23,13.331,66.782
	c0,13.739,5.223,27.483,15.681,37.936c10.446,10.451,24.19,15.681,37.739,15.681C80.305,120.398,93.66,115.364,103.922,105.298
	L103.922,105.298z M79.334,74.33H54.369c-3.873,0-6.585-0.583-8.521-1.937c-2.126-1.549-3.098-3.292-3.098-5.421
	c0-2.321,0.972-4.063,2.908-5.614c1.936-1.354,4.838-1.934,8.711-1.934h24.966c3.873,0,6.774,0.58,8.516,1.934
	c1.937,1.551,2.901,3.292,2.901,5.614c0,2.129-0.965,3.873-2.706,5.421C86.109,73.747,83.208,74.33,79.334,74.33L79.334,74.33z
	 M170.891,171.112c4.068-4.068,10.643-4.068,14.711,0c3.873,3.87,3.873,10.452,0,14.515c-4.068,4.067-10.643,4.067-14.711,0
	C167.018,181.564,167.018,174.982,170.891,171.112L170.891,171.112z"/>
</svg>
