<?xml version="1.0" encoding="utf-8"?>
<!-- Generator: Adobe Illustrator 14.0.0, SVG Export Plug-In . SVG Version: 6.00 Build 43363)  -->
<!DOCTYPE svg PUBLIC "-//W3C//DTD SVG 1.1//EN" "http://www.w3.org/Graphics/SVG/1.1/DTD/svg11.dtd">
<svg version="1.1" id="Layer_1" xmlns="http://www.w3.org/2000/svg" xmlns:xlink="http://www.w3.org/1999/xlink" x="0px" y="0px"
	 width="199.23px" height="200px" viewBox="0 0 199.23 200" enable-background="new 0 0 199.23 200" xml:space="preserve">
<path fill-rule="evenodd" clip-rule="evenodd" fill="#FFFFFF" d="M127.338,118.654c7.936-3.873,18.004-2.712,24.582,4.065
	l41.034,41.035c8.326,8.131,8.326,21.68,0,30.004l0,0c-8.32,8.322-21.87,8.322-30.196,0l-40.844-41.036
	c-6.773-6.582-7.936-16.646-4.063-24.584l-9.096-9.1c-12.199,9.68-27.098,14.713-42.002,14.713
	c-17.037,0-34.264-6.582-47.232-19.551C6.553,101.04-0.027,84.006-0.027,66.779c0-17.033,6.58-34.067,19.549-47.229
	C32.49,6.582,49.717,0,66.754,0c17.227,0,34.256,6.582,47.225,19.551c13.164,13.161,19.744,30.195,19.744,47.229
	c0,15.291-5.223,30.391-15.486,42.776L127.338,118.654z M74.688,98.716H58.623V75.103H35.006V58.845h23.617V35.036h16.064v23.809
	h24.002v16.258H74.688V98.716z M103.912,105.298c0.195,0,0.195-0.192,0.391-0.192c0-0.195,0.189-0.385,0.391-0.385
	c10.447-10.455,15.676-24.196,15.676-37.941c0-13.549-5.229-27.293-15.676-37.745C94.236,18.582,80.498,13.356,66.754,13.356
	s-27.295,5.226-37.746,15.678S13.326,53.23,13.326,66.779c0,13.745,5.23,27.486,15.682,37.941
	c10.451,10.449,24.002,15.675,37.746,15.675C80.107,120.396,93.656,115.362,103.912,105.298L103.912,105.298z M170.889,171.11
	c4.063-4.064,10.647-4.064,14.71,0c3.873,3.873,3.873,10.451,0,14.518c-4.063,4.064-10.647,4.064-14.71,0
	C166.826,181.562,166.826,174.983,170.889,171.11L170.889,171.11z"/>
</svg>
